 <svg version="1.0" xmlns="http://www.w3.org/2000/svg" width="700.000000pt" height="276.000000pt" viewBox="0 0 700.000000 276.000000" preserveAspectRatio="xMidYMid meet">
<metadata>
Created by potrace 1.12, written by Peter Selinger 2001-2015
</metadata>
<g transform="translate(0.000000,276.000000) scale(0.100000,-0.100000)" fill="#000000" stroke="none">
<path d="M4227 2733 c-6 -32 5 -48 28 -40 22 9 29 35 15 52 -19 23 -37 18 -43
-12z"></path>
<path d="M675 2726 c-27 -7 -121 -41 -207 -75 -215 -86 -280 -145 -295 -271
-7 -57 12 -145 38 -179 11 -13 19 -32 19 -43 0 -10 10 -22 25 -28 13 -5 42
-21 65 -35 l40 -25 0 -78 c0 -42 -3 -148 -7 -234 l-6 -157 -35 -12 c-81 -27
-141 -129 -129 -219 11 -88 94 -195 172 -225 l43 -16 6 -72 c5 -64 26 -558 26
-614 0 -18 -6 -23 -25 -23 -30 0 -65 -32 -65 -59 0 -11 -13 -28 -30 -38 -17
-9 -30 -25 -30 -35 0 -22 8 -23 31 -2 15 14 23 14 53 3 30 -11 47 -10 108 3
86 20 261 19 280 0 16 -16 39 -15 66 4 17 11 34 14 60 10 87 -16 95 -14 114
27 25 52 33 143 16 192 l-13 40 -125 -3 c-71 -2 -131 1 -140 7 -12 8 -14 51
-15 260 0 242 1 250 20 255 43 12 97 6 122 -14 14 -11 31 -20 38 -20 6 0 27
-7 45 -16 42 -22 131 -14 189 16 129 65 239 261 210 375 -16 65 -50 97 -97 93
l-37 -3 -6 -85 c-5 -90 -24 -138 -75 -199 -49 -58 -124 -79 -171 -46 -20 14
-21 21 -16 83 6 77 -6 109 -83 218 -24 34 -44 66 -44 71 0 5 11 15 25 21 27
12 44 57 27 74 -7 7 -16 6 -30 -1 -30 -16 -42 -14 -42 9 0 11 -10 25 -21 32
-12 7 -27 27 -35 43 l-13 30 -11 -32 c-13 -36 -38 -50 -47 -26 -4 9 1 44 10
79 9 34 17 69 17 78 0 19 96 114 139 138 18 10 31 25 31 36 0 17 -7 20 -52 18
-47 -1 -53 1 -53 19 0 19 8 20 125 23 68 1 129 7 134 12 18 18 21 10 18 -45
-4 -50 -6 -56 -30 -61 -100 -22 -152 -60 -188 -139 -27 -57 -32 -141 -10 -171
14 -18 15 -18 21 9 4 15 5 41 2 57 -9 43 10 89 56 138 35 35 47 42 81 42 23 0
47 7 58 17 28 25 23 -2 -12 -67 -40 -75 -40 -128 0 -173 25 -29 30 -43 30 -84
0 -27 5 -54 12 -61 7 -7 44 -12 94 -12 95 0 110 10 101 65 -5 33 -3 36 34 54
l40 20 10 -25 c5 -14 9 -41 9 -59 0 -24 6 -38 20 -45 15 -8 18 -17 13 -40 -5
-28 -2 -31 45 -53 41 -17 56 -31 75 -67 13 -25 32 -46 43 -48 10 -2 24 -9 29
-16 11 -15 56 -24 155 -32 57 -5 69 -3 99 18 94 64 126 161 80 244 -13 24 -20
46 -17 50 4 3 22 -5 40 -19 88 -67 230 -74 342 -17 33 17 60 29 60 28 1 -2 14
-21 29 -44 32 -48 33 -61 6 -113 -26 -51 -78 -97 -118 -106 -39 -8 -43 -15
-28 -54 14 -38 14 -38 -97 -81 -43 -17 -97 -45 -119 -63 -45 -35 -110 -58
-172 -61 -36 -1 -40 2 -43 24 -7 53 -69 89 -100 58 -15 -15 -29 -2 -34 32 -5
36 -49 40 -83 6 -27 -28 -33 -71 -14 -123 18 -53 157 -132 232 -133 20 0 30
-6 34 -20 3 -11 14 -20 24 -20 34 0 40 -33 37 -221 l-3 -182 -30 -17 c-17 -9
-31 -26 -33 -40 -4 -22 -2 -23 50 -15 60 10 82 9 155 0 45 -6 54 -5 59 10 10
25 -8 49 -42 55 -28 5 -28 6 -31 86 -3 66 0 83 12 88 25 9 46 -5 52 -34 3 -19
13 -29 29 -33 13 -2 26 -2 29 1 9 10 5 163 -5 183 -16 29 -35 23 -48 -15 -13
-36 -46 -56 -63 -39 -6 6 -9 41 -7 79 2 55 6 68 18 65 8 -2 35 -8 60 -13 29
-6 53 -19 67 -36 28 -33 53 -22 66 29 5 19 21 48 37 64 15 17 33 40 39 52 14
27 14 80 1 88 -5 3 -14 14 -20 24 -8 16 -1 23 54 50 77 38 157 119 194 198 22
48 27 72 27 138 0 105 -23 155 -116 251 -66 67 -72 78 -77 123 -6 64 1 81 28
74 28 -7 130 -111 130 -132 0 -9 9 -22 20 -29 11 -7 20 -19 20 -27 0 -24 23
-65 36 -65 8 0 17 -12 20 -26 6 -25 -2 -49 -28 -86 -17 -24 0 -52 35 -56 22
-3 26 1 29 25 2 15 6 27 11 26 4 -2 41 -3 82 -3 l75 0 0 -35 c0 -21 9 -48 21
-64 12 -16 19 -35 16 -43 -3 -8 -24 7 -60 46 -39 42 -59 56 -68 50 -8 -5 -23
-9 -33 -9 -11 0 -21 -6 -23 -12 -3 -7 2 -13 11 -13 8 0 27 -20 42 -45 14 -25
33 -45 43 -45 9 0 22 -9 28 -20 9 -13 29 -21 64 -26 45 -6 58 -14 105 -60 58
-58 150 -110 213 -120 23 -4 44 -11 47 -15 3 -5 31 -9 63 -9 56 0 57 0 55 -27
-1 -16 -5 -41 -9 -57 l-8 -28 42 7 c36 6 41 5 41 -13 0 -23 -20 -83 -31 -97
-6 -6 -16 -2 -27 8 -16 17 -16 19 1 28 9 6 17 19 17 29 0 31 -57 28 -62 -2 -2
-13 -9 -22 -16 -20 -7 1 -12 -8 -12 -22 0 -14 -4 -28 -10 -31 -21 -13 -9 -44
22 -59 41 -21 47 -20 75 5 28 28 30 23 36 -101 4 -81 2 -100 -16 -137 l-21
-43 33 -34 c22 -22 29 -36 21 -41 -13 -8 -5 -55 16 -96 18 -35 92 -89 121 -89
13 0 26 -7 29 -15 4 -8 14 -15 24 -15 11 0 22 -5 25 -10 4 -6 15 -8 25 -5 10
3 21 1 25 -5 5 -8 28 -9 71 -5 61 7 64 6 64 -15 0 -31 41 -23 57 11 10 20 18
25 37 22 22 -5 23 -8 14 -29 -9 -19 -7 -27 13 -48 19 -20 27 -22 48 -14 34 12
54 -14 47 -59 -6 -38 8 -52 24 -24 7 14 8 44 2 91 -9 77 -4 84 37 45 63 -61
65 -62 116 -59 40 1 51 6 53 20 3 24 -36 50 -51 35 -18 -18 -42 -13 -67 14
-21 22 -21 25 -6 31 9 4 15 13 12 20 -3 8 4 23 15 33 22 20 18 41 -7 41 -8 0
-17 -7 -20 -15 -11 -27 -31 -16 -48 25 -20 51 -20 66 1 140 15 56 15 61 -1 79
-15 16 -16 30 -11 89 5 47 4 72 -4 76 -6 4 -11 15 -11 25 0 25 -24 29 -197 37
-79 4 -143 11 -143 16 0 4 14 8 31 8 27 0 31 3 27 23 -4 23 -4 23 25 9 41 -20
242 -17 275 4 21 14 23 21 17 52 -4 21 -15 57 -26 81 -24 55 -24 59 4 54 14
-3 29 2 36 11 11 13 11 20 -3 41 -19 28 -57 33 -76 10 -11 -13 -18 -11 -53 17
-22 18 -62 40 -90 49 -43 15 -52 23 -76 69 -50 100 -131 112 -345 51 -128 -36
-214 -41 -266 -13 -55 30 -59 45 -21 88 46 51 61 93 61 162 0 72 -22 105 -88
133 l-44 19 7 58 c9 63 8 719 -1 733 -3 5 -55 9 -115 9 l-109 0 -11 -27 c-6
-16 -9 -92 -8 -175 1 -82 -2 -148 -7 -148 -5 0 -11 78 -14 172 l-5 173 -110 0
-110 0 -5 -267 c-3 -146 -7 -269 -10 -272 -4 -3 -31 15 -60 40 -103 84 -241
133 -378 134 -41 0 -64 4 -66 13 -10 32 -15 184 -6 197 19 29 30 -11 30 -107
l0 -93 79 0 c43 0 92 5 109 11 27 9 32 17 38 57 10 65 -9 198 -33 231 -35 48
-106 75 -197 75 -151 0 -236 -51 -256 -153 -5 -30 -10 -121 -10 -203 l0 -150
-38 -43 c-42 -48 -93 -164 -117 -270 -14 -58 -14 -78 -4 -115 6 -25 14 -69 16
-98 5 -53 4 -54 -19 -47 -12 4 -38 22 -57 40 l-34 33 -3 483 c-2 328 -7 486
-14 493 -6 6 -50 11 -103 11 l-92 0 0 -142 c0 -77 -3 -145 -7 -149 -5 -4 -8 0
-8 9 0 9 -12 53 -26 99 -15 46 -29 106 -33 133 l-6 50 -135 0 -135 0 -3 -178
-2 -178 -148 4 c-81 3 -165 8 -187 11 -22 4 -59 9 -83 12 l-43 5 3 87 3 87 93
3 92 3 0 67 c0 38 -5 73 -11 79 -8 8 -4 15 17 26 64 34 115 119 94 158 -20 36
-105 47 -195 25z m113 -33 c-16 -2 -40 -2 -55 0 -16 2 -3 4 27 4 30 0 43 -2
28 -4z m-92 -18 c12 -11 28 -13 70 -9 57 7 67 -1 38 -31 -48 -48 -103 -62
-253 -67 -94 -2 -109 -6 -160 -34 -44 -24 -61 -41 -81 -80 -34 -67 -32 -155 7
-225 22 -38 25 -51 16 -60 -33 -33 -107 58 -119 143 -6 46 18 158 35 158 4 0
28 17 52 39 58 50 94 68 186 92 42 10 84 26 94 35 18 16 78 51 92 53 5 0 15
-6 23 -14z m-16 -144 c0 -11 -69 -20 -76 -10 -2 4 10 10 28 12 18 2 36 5 41 5
4 1 7 -2 7 -7z m-237 -8 c8 -7 -37 -36 -71 -47 -35 -11 -25 8 16 32 41 24 46
25 55 15z m112 -3 c3 -5 -1 -10 -9 -10 -9 0 -16 5 -16 10 0 6 4 10 9 10 6 0
13 -4 16 -10z m1698 -27 c51 -30 74 -74 82 -156 8 -89 4 -139 -12 -145 -9 -3
-13 13 -14 55 -1 123 -12 162 -55 199 l-39 34 -131 -2 c-115 -3 -135 -6 -155
-23 -18 -15 -20 -16 -10 -2 17 21 71 48 120 58 60 13 178 3 214 -18z m-1513
-2 c0 -16 -211 -24 -288 -12 -2 1 0 6 3 11 8 12 285 14 285 1z m554 -3 c2 -7
11 -40 18 -73 8 -33 24 -94 36 -135 12 -41 24 -87 27 -102 3 -16 11 -27 18
-25 7 1 11 -7 9 -22 -5 -51 -28 -38 -37 22 -4 23 -22 94 -40 157 -19 63 -36
127 -39 143 l-6 27 -105 0 c-63 0 -105 4 -105 10 0 16 220 13 224 -2z m275 -2
c13 -15 24 -956 12 -956 -10 0 -41 56 -51 90 -8 29 2 41 16 19 19 -31 24 49
24 417 0 298 -3 403 -12 412 -7 7 -39 12 -75 12 -35 0 -63 4 -63 10 0 16 135
12 149 -4z m1261 -158 c3 -114 9 -171 18 -180 20 -20 14 -29 -20 -26 l-33 3 0
175 0 175 -72 3 c-40 2 -73 7 -73 13 0 6 34 9 88 7 l87 -3 5 -167z m265 163
c8 -14 5 -699 -3 -745 -4 -22 -13 -41 -19 -43 -10 -4 -13 81 -15 384 l-3 388
-72 3 c-40 2 -73 7 -73 12 0 13 177 13 185 1z m-2660 -21 c-3 -5 -12 -10 -18
-10 -7 0 -6 4 3 10 19 12 23 12 15 0z m-85 -111 c0 -24 -4 -38 -10 -34 -17 10
-11 75 7 75 2 0 3 -18 3 -41z m1732 -106 l3 -118 38 -3 c65 -6 34 -32 -38 -32
l-30 0 -3 112 c-3 116 2 158 18 158 5 0 11 -52 12 -117z m-1722 -11 c0 -42 -4
-40 -18 10 -8 30 -8 36 4 31 8 -3 14 -19 14 -41z m348 -89 c-10 -2 -26 -2 -35
0 -10 3 -2 5 17 5 19 0 27 -2 18 -5z m-68 -29 c0 -2 -18 -4 -40 -4 -22 0 -40
3 -40 8 0 4 18 6 40 4 22 -2 40 -6 40 -8z m420 -69 c0 -25 -4 -45 -10 -45 -11
0 -14 73 -3 83 11 12 13 8 13 -38z m930 20 c-7 -9 -15 -13 -17 -11 -7 7 7 26
19 26 6 0 6 -6 -2 -15z m349 -14 c30 -11 77 -36 105 -55 74 -49 166 -141 166
-165 0 -16 -19 -2 -82 59 -52 49 -107 92 -148 112 -63 32 -69 33 -185 33 -100
-1 -129 -5 -176 -23 -113 -45 -200 -157 -204 -261 -1 -25 -6 -55 -12 -65 -6
-12 -7 -30 -3 -45 40 -132 41 -138 30 -184 -18 -67 -47 -90 -125 -95 -53 -4
-70 -1 -100 18 -37 23 -88 88 -79 101 10 16 -16 47 -45 54 -27 6 -30 10 -34
63 -2 31 -8 68 -12 81 -6 17 -5 22 3 17 7 -4 12 -15 12 -25 0 -10 11 -26 25
-35 14 -9 25 -24 25 -34 0 -27 65 -132 104 -169 38 -35 95 -51 135 -37 l26 10
0 179 c0 193 10 241 54 264 11 7 24 23 27 36 12 48 131 137 236 176 67 25 178
21 257 -10z m-1564 -31 c19 -8 19 -9 -2 -9 -12 -1 -25 4 -28 9 -7 12 2 12 30
0z m1125 6 c0 -2 -8 -10 -17 -17 -16 -13 -17 -12 -4 4 13 16 21 21 21 13z
m-1162 -49 c2 -10 -13 -34 -37 -58 -22 -23 -43 -55 -47 -73 -3 -17 -13 -44
-21 -60 -8 -16 -16 -47 -18 -70 -3 -43 -25 -60 -48 -37 -11 11 -11 296 0 314
2 4 41 6 86 5 69 -3 82 -6 85 -21z m2092 -185 c0 -177 -7 -238 -25 -220 -9 8
-11 390 -3 411 20 49 28 -5 28 -191z m40 42 c0 -86 4 -163 10 -173 7 -14 5
-23 -10 -36 -20 -18 -20 -16 -20 179 0 129 3 195 10 191 6 -4 10 -69 10 -161z
m-630 136 c11 -7 -3 -10 -47 -10 -60 0 -63 -1 -63 -24 0 -31 -10 -56 -21 -56
-10 0 -12 83 -2 93 10 11 116 8 133 -3z m-270 -15 c0 -2 -10 -9 -22 -15 -22
-11 -22 -10 -4 4 21 17 26 19 26 11z m110 -44 c0 -28 -4 -53 -10 -56 -6 -4
-10 10 -10 34 0 22 -5 43 -11 47 -8 4 -7 9 2 15 25 16 29 10 29 -40z m228 33
c19 -6 22 -13 22 -63 0 -31 7 -69 15 -85 18 -34 11 -50 -15 -36 -16 8 -20 24
-22 83 l-3 72 -77 3 c-114 4 -99 25 22 30 19 1 45 -1 58 -4z m-308 -19 c-7 -8
-20 -15 -29 -15 -13 1 -13 3 3 15 26 19 42 19 26 0z m-815 -5 c3 -6 -5 -10
-19 -10 -32 0 -95 -54 -113 -99 -20 -47 -36 -27 -19 24 10 28 22 42 42 49 16
5 42 18 59 28 34 21 41 22 50 8z m1435 -11 c0 -11 -4 -17 -10 -14 -5 3 -10 13
-10 21 0 8 5 14 10 14 6 0 10 -9 10 -21z m-1365 -9 c10 -11 23 -20 29 -20 25
0 87 -56 107 -97 30 -61 19 -63 -20 -3 -21 32 -53 63 -91 87 -33 21 -60 41
-60 46 0 13 17 7 35 -13z m90 0 c10 -11 14 -20 9 -20 -5 0 -15 9 -22 20 -7 11
-11 20 -9 20 2 0 12 -9 22 -20z m-120 -20 c4 -6 -5 -7 -23 -4 -32 7 -89 -18
-99 -42 -3 -7 -10 -14 -16 -14 -6 0 4 16 23 35 27 28 42 35 71 35 21 0 41 -4
44 -10z m216 -84 l20 -41 -21 25 c-57 68 -60 73 -35 63 9 -3 25 -24 36 -47z
m656 12 c34 -23 43 -40 21 -37 -31 4 -38 -3 -38 -37 0 -19 5 -44 10 -55 9 -15
7 -19 -5 -19 -8 0 -20 12 -25 26 -11 29 -14 144 -3 144 4 0 22 -10 40 -22z
m-806 -15 c8 -22 7 -30 -7 -40 -28 -20 -34 -16 -34 27 0 48 25 56 41 13z
m1308 -7 c17 -18 22 -33 19 -62 l-3 -39 -28 54 c-15 30 -27 58 -27 63 0 15 16
8 39 -16z m-1359 -71 c5 -6 2 -18 -6 -29 -13 -18 -14 -13 -12 50 1 45 3 55 5
29 3 -22 8 -44 13 -50z m636 0 c-3 -22 -8 -57 -12 -77 -5 -28 -1 -45 15 -71
27 -43 27 -106 1 -156 -20 -40 -63 -81 -84 -81 -6 0 1 8 16 17 30 19 44 45 58
109 9 39 7 53 -15 107 -26 66 -26 70 7 156 6 15 5 28 -2 35 -5 5 -10 17 -10
26 1 12 4 11 16 -5 10 -14 14 -33 10 -60z m-816 15 c0 -11 -4 -20 -10 -20 -5
0 -10 2 -10 4 0 2 -3 11 -6 20 -4 11 -1 16 10 16 9 0 16 -8 16 -20z m346 -44
c14 -29 23 -68 23 -91 -1 -40 -1 -40 -9 -8 -4 17 -19 52 -34 76 -26 46 -36 94
-15 81 6 -3 22 -30 35 -58z m719 53 c10 -15 -4 -61 -15 -54 -13 8 -13 65 -1
65 6 0 13 -5 16 -11z m213 -45 c2 -10 17 -33 34 -50 22 -23 26 -34 17 -39 -14
-9 -49 28 -49 51 0 8 -4 14 -10 14 -5 0 -10 -6 -10 -14 0 -7 -7 -20 -16 -27
-15 -12 -16 -10 -10 21 13 60 17 71 29 67 7 -2 14 -12 15 -23z m702 8 c0 -5
-23 -14 -51 -20 -55 -13 -78 -9 -38 6 13 5 31 12 39 15 23 8 50 8 50 -1z
m-659 -29 c13 -16 12 -17 -3 -4 -10 7 -18 15 -18 17 0 8 8 3 21 -13z m-1611
-25 c0 -6 -7 -5 -15 2 -8 7 -15 17 -15 22 0 6 7 5 15 -2 8 -7 15 -17 15 -22z
m600 -3 c5 -14 13 -38 16 -53 6 -24 5 -25 -9 -12 -14 15 -33 90 -22 90 3 0 10
-11 15 -25z m1772 1 c15 -1 33 -8 40 -16 11 -12 11 -12 -5 -1 -28 22 -30 7 -7
-44 l21 -46 -25 -52 c-13 -29 -27 -60 -30 -69 -7 -22 -29 -23 -61 -2 l-25 16
31 35 c58 67 58 113 0 113 -39 0 -108 -54 -116 -90 -7 -33 -1 -50 20 -50 22 0
76 -55 70 -71 -3 -9 12 -31 38 -57 77 -75 183 -83 393 -27 73 19 145 35 160
35 24 0 94 -32 94 -43 0 -1 -26 -4 -57 -5 -74 -3 -151 -21 -183 -44 -21 -15
-54 -20 -171 -25 -140 -6 -148 -5 -194 18 -27 13 -83 58 -126 99 -62 60 -81
86 -98 133 -27 76 -26 103 5 140 40 48 89 68 149 60 28 -3 62 -7 77 -7z
m-1915 -53 c-3 -10 -5 -4 -5 12 0 17 2 24 5 18 2 -7 2 -21 0 -30z m-387 17 c0
-5 -4 -10 -9 -10 -5 0 -23 -3 -40 -6 -19 -4 -31 -2 -31 4 0 6 15 13 33 15 17
2 35 5 40 5 4 1 7 -2 7 -8z m1646 -76 c33 -88 -4 -202 -93 -285 -67 -62 -109
-86 -183 -103 -34 -8 -68 -20 -73 -25 -6 -6 -19 -11 -28 -11 -20 0 -63 -52
-74 -88 -5 -16 -1 -30 11 -43 15 -17 15 -19 1 -19 -44 0 -63 114 -24 151 27
26 115 69 142 69 11 0 31 7 43 16 13 9 60 35 105 58 112 57 127 68 127 88 0
25 -20 22 -76 -7 -26 -14 -50 -23 -52 -20 -3 3 26 36 65 73 80 76 95 111 69
163 -9 18 -16 39 -16 47 0 27 38 -16 56 -64z m717 56 c3 -11 1 -18 -4 -14 -5
3 -9 12 -9 20 0 20 7 17 13 -6z m-2718 -21 c5 -5 -3 -9 -22 -9 -38 0 -63 9
-63 22 0 12 70 1 85 -13z m2135 -24 c0 -14 -4 -25 -10 -25 -11 0 -14 33 -3 43
11 11 13 8 13 -18z m-1909 5 c48 0 49 -1 73 -48 13 -27 32 -54 41 -62 24 -20
75 -128 75 -159 0 -30 -29 -79 -30 -50 0 9 -9 24 -20 34 -11 10 -20 29 -20 42
0 32 -15 59 -64 115 -23 25 -52 61 -65 78 -21 27 -28 31 -56 26 -36 -7 -88 11
-78 27 3 5 25 7 51 3 25 -3 67 -6 93 -6z m2387 -11 c3 -17 -43 -79 -58 -79 -5
0 -2 12 6 28 7 15 14 37 14 50 0 17 5 23 17 20 10 -2 19 -10 21 -19z m-2613
-14 c29 -9 61 -25 70 -35 10 -11 25 -20 33 -20 13 0 221 -209 232 -234 11 -26
55 -76 66 -76 6 0 19 -11 27 -24 22 -33 58 -39 124 -20 55 16 67 22 101 55 58
54 112 167 112 233 0 61 30 39 43 -32 4 -19 1 -46 -8 -67 -8 -19 -21 -50 -29
-67 -40 -97 -178 -196 -257 -185 -48 6 -179 83 -179 105 0 8 -17 31 -38 51
-21 20 -55 59 -76 88 -97 135 -240 211 -344 183 -42 -11 -45 -16 -57 -82 -7
-47 9 -81 68 -135 60 -55 140 -84 252 -90 92 -5 135 -17 135 -39 0 -35 -145
-17 -310 39 -138 46 -190 82 -211 144 -14 43 -7 145 10 151 7 2 27 17 44 32
18 15 39 30 47 33 28 11 92 7 145 -8z m955 -15 c0 -5 -7 -10 -15 -10 -8 0 -15
5 -15 10 0 6 7 10 15 10 8 0 15 -4 15 -10z m-773 -6 c-3 -3 -12 -4 -19 -1 -8
3 -5 6 6 6 11 1 17 -2 13 -5z m833 -4 c0 -5 -4 -10 -9 -10 -6 0 -13 5 -16 10
-3 6 1 10 9 10 9 0 16 -4 16 -10z m-1002 -91 c74 -33 202 -153 202 -188 0 -19
-6 -21 -57 -21 -88 0 -218 49 -265 100 -30 31 -38 47 -38 76 0 80 39 88 158
33z m274 -26 c29 -35 32 -47 5 -27 -27 20 -43 44 -28 44 4 0 15 -8 23 -17z
m2958 -163 c0 -21 -55 -89 -64 -79 -4 3 3 17 14 32 11 14 20 32 20 39 0 8 3
18 7 21 12 13 23 7 23 -13z m-80 -5 c0 -11 -12 -15 -45 -15 -50 0 -57 6 -22
20 35 14 67 12 67 -5z m-2005 -55 c5 -17 4 -22 -3 -15 -5 6 -13 21 -17 35 -5
17 -4 22 3 15 5 -5 13 -21 17 -35z m2275 10 c64 -33 130 -125 149 -211 11 -47
2 -69 -29 -69 -13 0 -19 11 -24 48 -13 98 -93 211 -161 228 -14 3 -25 10 -25
15 0 16 49 10 90 -11z m-3450 -25 c47 -15 92 -29 100 -32 8 -3 10 -7 5 -9 -16
-6 -198 55 -213 71 -4 5 0 6 8 3 8 -3 53 -17 100 -33z m2890 20 c0 -17 -26
-20 -36 -4 -4 7 -21 9 -40 6 -19 -3 -34 -2 -34 4 0 5 25 9 55 9 42 0 55 -3 55
-15z m110 -5 c0 -11 -7 -23 -15 -26 -8 -4 -15 -13 -15 -21 0 -14 -44 -63 -56
-63 -3 0 7 20 21 43 28 48 25 59 -14 52 -19 -4 -15 0 14 15 51 25 65 25 65 0z
m170 10 c0 -5 -9 -10 -20 -10 -17 0 -19 -5 -15 -45 4 -48 0 -53 -30 -31 -19
14 -19 15 -2 33 25 28 21 41 -15 52 -30 8 -28 9 25 10 32 1 57 -3 57 -9z m94
-12 c-21 -37 -50 -58 -78 -57 l-31 0 40 18 c22 10 46 26 54 35 16 19 25 21 15
4z m50 0 c-22 -39 -48 -69 -67 -80 -13 -7 -4 9 23 40 46 52 57 62 44 40z
m-2039 -18 c23 -25 14 -25 -27 0 -27 16 -29 20 -12 20 11 0 29 -9 39 -20z
m1794 -33 c-9 -21 -9 -30 1 -42 8 -9 8 -15 2 -15 -6 0 -18 10 -26 22 -15 20
-14 24 6 45 26 28 33 24 17 -10z m549 0 c2 -10 -3 -17 -12 -17 -18 0 -29 16
-21 31 9 14 29 6 33 -14z m-3622 -2 c16 -12 17 -14 2 -15 -25 0 -49 11 -42 21
7 13 17 11 40 -6z m1264 -25 c11 -11 20 -24 20 -28 0 -5 10 -14 23 -21 19 -10
32 -9 75 8 68 27 74 26 70 -6 -3 -26 -9 -29 -77 -46 -81 -20 -120 -16 -128 13
-4 15 -11 18 -29 14 -18 -5 -31 2 -54 24 -45 45 -37 58 16 27 48 -28 66 -27
47 4 -21 34 6 42 37 11z m-1140 0 c8 -5 12 -12 8 -15 -10 -10 -49 5 -43 16 8
11 16 11 35 -1z m1617 -12 c45 -50 41 -108 -8 -108 -16 0 -29 5 -29 10 0 6 4
10 9 10 21 0 23 43 3 70 -19 25 -20 40 -2 40 4 0 16 -10 27 -22z m-1517 -9 c0
-11 -47 -12 -53 -1 -3 4 8 7 24 8 16 1 29 -3 29 -7z m3000 -16 c0 -16 -5 -45
-10 -65 -9 -30 -8 -42 6 -62 18 -28 19 -48 9 -225 -4 -78 -2 -134 4 -154 8
-20 8 -34 1 -42 -6 -8 -9 -52 -7 -106 3 -88 5 -94 25 -97 32 -5 27 -22 -7 -22
-49 0 -54 17 -46 143 6 104 5 114 -14 139 -25 31 -27 51 -6 68 12 10 12 16 4
26 -8 10 -8 22 0 45 6 18 11 101 11 190 0 157 0 159 -22 159 -36 0 -3 21 45
29 4 0 7 -11 7 -26z m-1569 -13 c30 -16 24 -40 -10 -40 -33 0 -46 13 -37 35 6
18 20 19 47 5z m-1684 -67 c-3 -10 -5 -4 -5 12 0 17 2 24 5 18 2 -7 2 -21 0
-30z m1575 0 c24 -22 23 -33 -6 -33 -18 0 -23 5 -23 25 0 29 4 31 29 8z m1726
-15 c-2 -21 -8 -33 -18 -33 -14 0 -16 20 -5 53 9 26 26 11 23 -20z m-1583 -6
c17 -9 9 -11 -45 -11 -62 0 -63 1 -35 13 35 15 53 14 80 -2z m-212 -9 c-7 -2
-21 -2 -30 0 -10 3 -4 5 12 5 17 0 24 -2 18 -5z m1386 -22 c14 -10 22 -25 19
-37 -4 -23 -34 -26 -30 -3 1 9 -5 22 -13 29 -16 13 -20 30 -7 30 4 0 18 -9 31
-19z m-1344 -101 c0 -73 -3 -100 -12 -100 -18 0 -18 171 -1 188 7 7 12 12 13
12 0 0 0 -45 0 -100z m215 71 c0 -21 -13 -41 -26 -41 -17 0 -18 22 -2 38 14
14 28 16 28 3z m1729 -77 c2 -2 -28 -4 -67 -4 -39 0 -73 4 -77 9 -5 9 134 4
144 -5z m119 -34 c9 -17 11 -45 7 -88 -5 -48 -3 -69 9 -87 14 -21 14 -29 1
-72 -21 -68 -18 -99 15 -173 15 -35 26 -68 23 -73 -2 -4 1 -14 7 -22 17 -20 1
-19 -22 2 -10 9 -18 25 -18 36 0 10 -11 28 -24 38 -36 28 -52 115 -37 192 10
50 10 60 -4 74 -12 11 -13 19 -6 26 14 14 14 114 1 122 -5 3 -10 17 -10 31 0
21 4 25 22 22 12 -2 28 -14 36 -28z m-1938 -66 c0 -48 -3 -65 -12 -61 -7 2
-13 9 -12 15 1 7 2 35 3 62 2 75 21 61 21 -16z m-1660 21 c0 -8 -2 -15 -4 -15
-2 0 -6 7 -10 15 -3 8 -1 15 4 15 6 0 10 -7 10 -15z m1532 -97 c1 -29 2 -69 3
-88 0 -19 4 -41 8 -47 11 -18 2 -16 -17 3 -12 12 -16 36 -16 100 0 92 19 119
22 32z m1771 -12 c11 -8 17 -27 17 -50 0 -31 -3 -36 -24 -36 -25 0 -36 21 -36
73 0 29 15 34 43 13z m-3047 -93 c-4 -10 -2 -48 5 -86 9 -51 9 -71 1 -79 -19
-19 -23 -6 -26 91 -4 76 -2 91 11 91 10 0 13 -6 9 -17z m1351 -60 c2 -6 -3
-13 -12 -16 -10 -5 -15 0 -15 14 0 21 21 22 27 2z m-1066 -76 c-13 -13 -14 5
-3 54 l7 34 3 -39 c2 -21 -1 -43 -7 -49z m-618 -22 c-3 -9 -8 -14 -10 -11 -3
3 -2 9 2 15 9 16 15 13 8 -4z m122 -54 c-14 -12 -73 -25 -60 -13 6 6 19 12 30
15 34 8 40 8 30 -2z m470 -1 c-3 -5 -15 -10 -26 -10 -11 0 -17 5 -14 10 3 6
15 10 26 10 11 0 17 -4 14 -10z m2855 1 c0 -5 -6 -14 -14 -20 -16 -13 -32 2
-21 19 8 12 35 13 35 1z m30 -51 c0 -5 -4 -10 -10 -10 -5 0 -10 5 -10 10 0 6
5 10 10 10 6 0 10 -4 10 -10z m174 -13 c8 -14 8 -20 -4 -27 -27 -18 -40 -11
-40 21 0 23 4 30 16 27 9 -2 22 -11 28 -21z"></path>
<path d="M3803 2693 c-4 -10 -14 -24 -22 -31 -14 -11 -13 -14 8 -32 25 -22 46
-26 56 -10 3 6 24 10 45 10 50 0 56 11 24 49 -21 25 -33 31 -65 31 -29 0 -41
-5 -46 -17z m78 -8 c35 -18 30 -35 -10 -35 -31 0 -57 23 -46 40 9 14 21 13 56
-5z"></path>
<path d="M4476 2695 c-21 -22 -17 -50 8 -50 29 0 44 31 25 51 -15 14 -18 14
-33 -1z"></path>
<path d="M4070 2630 c0 -23 4 -30 20 -30 11 0 23 -7 26 -15 9 -21 32 -19 39 5
9 29 -24 69 -57 70 -24 0 -28 -4 -28 -30z"></path>
<path d="M4714 2641 c-19 -11 -41 -17 -57 -14 -22 4 -27 1 -32 -20 -4 -14 -15
-33 -26 -43 -13 -11 -16 -21 -9 -29 11 -13 2 -55 -12 -55 -6 0 -8 7 -4 15 3 9
-3 19 -16 26 -12 7 -23 8 -25 3 -4 -11 -134 -12 -151 0 -11 6 -8 14 13 36 17
18 25 36 23 51 -7 53 -128 7 -128 -49 0 -22 -11 -37 -33 -45 -10 -4 -15 -12
-12 -18 4 -6 -1 -13 -12 -15 -24 -7 -45 -71 -31 -94 8 -12 6 -25 -6 -49 -16
-29 -16 -34 -2 -44 17 -14 23 -161 19 -484 l-3 -182 -32 6 c-18 3 -39 10 -45
16 -7 5 -14 7 -14 3 -1 -3 -3 -10 -4 -16 -1 -5 -3 -14 -4 -20 0 -5 -4 -9 -8
-9 -21 3 -33 -2 -33 -15 0 -7 -10 -17 -22 -20 l-23 -6 23 -20 c13 -10 43 -22
67 -26 35 -5 45 -10 45 -25 0 -17 5 -18 43 -13 23 4 44 8 46 10 2 2 10 -4 16
-13 11 -15 15 -15 29 -3 10 7 16 22 14 34 -2 17 -12 21 -52 23 -54 4 -65 8
-50 22 5 5 39 7 75 4 63 -5 66 -6 61 -30 -4 -22 -2 -23 24 -18 55 12 57 14 44
30 -10 12 -10 15 3 15 25 0 32 19 37 110 5 81 6 83 19 55 7 -16 20 -58 28 -91
15 -59 17 -62 52 -68 20 -3 82 -6 138 -6 l102 0 11 40 c6 22 19 44 30 50 17 9
18 13 6 48 -24 67 -36 177 -36 326 0 140 1 146 20 146 11 0 23 7 26 15 7 17
-14 48 -26 40 -14 -8 -17 297 -3 325 6 14 17 37 23 52 13 27 7 48 -13 48 -7 0
-24 -15 -39 -34 -19 -24 -33 -33 -47 -29 -20 5 -61 -31 -61 -54 0 -7 -9 -13
-21 -13 -29 0 -22 44 7 48 12 2 24 12 27 23 3 10 12 19 20 19 8 0 17 7 21 15
3 8 15 15 26 15 11 0 20 5 20 10 0 16 -32 12 -66 -9z m-317 -37 c5 -15 -41
-74 -59 -74 -13 0 3 64 20 78 21 16 31 15 39 -4z m268 -4 c3 -5 -1 -10 -10
-10 -9 0 -13 5 -10 10 3 6 8 10 10 10 2 0 7 -4 10 -10z m145 -29 c0 -6 -4 -13
-10 -16 -5 -3 -10 1 -10 9 0 9 5 16 10 16 6 0 10 -4 10 -9z m-66 -10 c3 -5 -1
-12 -10 -15 -20 -8 -29 -1 -19 13 8 13 22 14 29 2z m20 -42 c-27 -11 -34 -10
-34 0 0 11 31 20 44 13 5 -3 1 -9 -10 -13z m-271 -28 c4 -4 21 -59 37 -121 30
-113 42 -272 21 -284 -5 -3 -18 31 -30 77 -12 45 -36 134 -54 197 l-33 115
-82 3 c-86 3 -112 19 -39 24 60 4 171 -3 180 -11z m285 3 c10 -3 12 -78 10
-351 -3 -312 -1 -354 15 -407 16 -51 16 -60 4 -75 -8 -9 -19 -29 -24 -46 -17
-53 -81 -45 -68 8 5 19 13 26 27 24 27 -3 36 23 10 30 -30 8 -36 91 -33 471
l2 333 -33 -6 c-36 -7 -94 9 -68 19 35 12 117 13 158 0z m-230 -26 c14 -14 16
-88 3 -88 -5 0 -12 16 -15 36 -4 19 -10 42 -13 50 -6 17 9 18 25 2z m-148
-483 c6 -19 10 -45 8 -57 -3 -21 -4 -21 -20 -4 -19 18 -26 96 -9 96 5 0 15
-16 21 -35z m31 -270 l-6 -130 -25 0 -25 0 0 108 c0 107 0 109 29 133 15 14
29 24 30 22 1 -2 0 -61 -3 -133z m-252 -122 c11 -25 10 -29 -11 -46 -23 -19
-23 -19 -36 13 -22 54 23 86 47 33z m51 -83 c0 -5 -9 -10 -20 -10 -11 0 -20 5
-20 10 0 6 9 10 20 10 11 0 20 -4 20 -10z"></path>
<path d="M6131 2637 c-6 -6 -11 -16 -11 -21 0 -6 -4 -17 -9 -25 -8 -12 -12
-13 -26 -1 -12 10 -19 10 -27 2 -17 -17 6 -59 34 -65 13 -2 -43 -5 -124 -6
-135 -1 -148 -3 -158 -20 -5 -11 -20 -21 -32 -23 l-23 -3 4 -247 c3 -173 0
-248 -7 -248 -6 0 -14 5 -17 10 -10 16 -51 11 -68 -8 -12 -13 -26 -17 -47 -14
-24 3 -32 0 -41 -21 -10 -22 -8 -30 9 -54 17 -24 27 -28 78 -29 33 -1 65 -3
72 -3 9 -1 12 -37 12 -145 l0 -143 83 -6 c45 -4 155 -7 245 -7 l162 0 0 70 0
69 -92 3 -93 3 -3 144 c-1 80 2 149 7 154 4 4 45 9 90 9 96 0 100 4 81 83
l-13 54 -81 3 -81 3 0 105 0 105 90 5 90 5 0 70 0 70 -52 3 c-51 3 -77 22 -30
22 13 0 32 9 43 21 17 18 17 23 4 46 -18 31 -53 46 -69 30z m49 -32 c16 -19
-3 -45 -31 -45 -22 0 -26 29 -7 48 16 16 23 15 38 -3z m35 -160 l0 -50 -37 -3
-38 -3 0 45 0 46 -155 0 c-99 0 -155 4 -155 10 0 7 66 9 193 8 l192 -3 0 -50z
m-185 -185 c0 -89 3 -112 15 -116 33 -13 12 -25 -37 -22 l-53 3 -3 109 c-1 61
0 116 2 123 3 7 21 13 41 13 l35 0 0 -110z m176 -166 c19 -46 12 -64 -25 -64
-35 0 -61 31 -61 72 0 25 3 28 36 28 31 0 37 -4 50 -36z m-173 -96 c-2 -5 -3
-78 -3 -163 l0 -155 -40 0 -40 0 0 158 c0 87 3 162 7 166 9 9 79 3 76 -6z
m-299 -37 c19 -21 15 -26 -31 -36 -30 -6 -33 -4 -33 18 0 13 3 27 7 30 12 13
40 7 57 -12z m481 -331 c0 -45 0 -45 -35 -45 -35 0 -35 0 -38 48 l-3 48 38 -3
c38 -3 38 -3 38 -48z"></path>
<path d="M5060 2612 c0 -10 -4 -22 -9 -27 -5 -6 -11 -21 -13 -35 -2 -17 -9
-25 -23 -25 -26 0 -31 -34 -11 -74 9 -16 16 -41 16 -56 0 -23 3 -25 48 -25 26
0 53 -5 60 -12 7 -7 12 -42 12 -85 0 -58 -3 -73 -15 -73 -9 0 -15 -9 -15 -25
0 -16 6 -25 16 -25 14 0 16 -8 11 -52 -4 -31 -2 -57 4 -64 6 -7 9 -23 7 -36
-5 -35 -41 -35 -79 2 -50 48 -72 48 -136 4 -30 -21 -58 -44 -61 -52 -3 -8 3
-30 13 -48 15 -29 16 -38 6 -58 -15 -27 -1 -66 24 -66 9 0 15 -9 15 -22 0 -12
7 -30 17 -40 12 -14 16 -34 14 -83 -3 -82 4 -105 32 -105 30 0 51 -15 42 -30
-5 -8 -22 -10 -48 -7 -22 3 -50 2 -63 -3 -19 -8 -26 -4 -43 26 -20 33 -41 45
-41 24 0 -6 7 -21 15 -34 9 -13 13 -31 9 -40 -8 -20 -34 -21 -34 -2 0 8 -4 17
-8 20 -5 3 -7 -27 -4 -67 l4 -73 -41 -43 c-38 -39 -54 -81 -31 -81 5 0 25 -11
44 -24 41 -28 149 -42 192 -26 38 15 74 5 74 -20 0 -11 -7 -20 -15 -20 -20 0
-19 -13 5 -57 19 -36 18 -65 -1 -30 -12 21 -62 23 -78 3 -6 -7 -25 -16 -41
-19 -21 -5 -31 -14 -36 -33 -6 -22 2 -34 47 -81 34 -35 77 -66 116 -83 l61
-28 -5 -44 c-3 -24 -9 -48 -14 -54 -5 -6 0 -26 11 -47 11 -20 17 -37 13 -37
-4 0 -2 -5 5 -12 7 -7 12 -19 12 -27 0 -9 21 -37 46 -64 33 -33 54 -47 73 -47
15 0 49 -7 75 -16 172 -59 350 77 350 266 0 102 -50 183 -145 234 -48 27 -57
28 -129 23 -81 -6 -100 0 -100 35 0 29 -28 33 -60 9 -46 -33 -66 -25 -35 15
19 26 18 44 -5 74 -11 14 -20 30 -20 37 0 21 38 25 66 7 26 -18 27 -18 51 10
15 18 23 38 21 55 -2 21 -9 27 -36 29 -20 2 -32 8 -29 15 6 20 54 19 101 -2
25 -11 48 -16 51 -11 7 12 -30 35 -81 50 -41 12 -60 7 -115 -32 -29 -20 -49
-3 -49 43 0 22 -8 54 -17 69 -14 24 -15 34 -5 55 18 39 15 54 -13 65 -31 12
-31 20 3 45 23 18 37 20 102 15 74 -5 75 -5 85 -37 10 -34 23 -41 43 -21 9 9
13 7 18 -5 3 -10 17 -17 30 -17 18 0 29 9 41 36 14 28 22 35 40 31 19 -3 23 0
23 19 0 12 -9 29 -21 38 -19 13 -20 17 -8 50 7 20 23 43 36 51 13 9 23 21 23
29 0 9 12 12 40 10 45 -3 60 10 37 33 -10 11 -36 16 -77 17 -48 1 -64 5 -72
19 -9 17 -11 17 -22 1 -33 -44 -60 46 -30 101 18 33 18 34 -6 53 -23 18 -23
19 -7 65 13 37 14 59 7 105 -21 123 -6 160 52 138 26 -10 32 -8 50 14 15 18
18 32 12 55 -4 16 -6 41 -6 55 1 14 3 45 4 70 l3 45 -202 3 -202 2 -20 29
c-15 20 -17 31 -9 39 16 16 2 42 -22 42 -13 0 -20 -7 -20 -18z m40 -88 l10
-24 200 0 c223 0 225 0 201 -66 -9 -26 -9 -42 0 -74 11 -35 10 -43 -4 -57 -13
-14 -21 -14 -42 -5 -33 15 -41 37 -27 76 6 17 9 48 5 69 l-6 37 -182 0 c-152
0 -185 3 -195 15 -10 12 -10 21 -1 41 12 28 28 24 41 -12z m280 -163 c0 -5
-10 -15 -22 -24 l-23 -15 28 -29 c20 -21 27 -40 28 -69 0 -21 4 -61 9 -89 7
-38 5 -61 -8 -97 -15 -46 -15 -49 5 -76 17 -23 18 -30 7 -47 -7 -11 -14 -45
-16 -75 l-3 -55 35 -3 c19 -2 42 -10 52 -18 13 -13 20 -13 37 -3 24 16 39 4
25 -19 -15 -23 -52 -28 -60 -8 -7 18 -39 22 -49 6 -10 -16 -25 -12 -25 8 0 13
-8 17 -32 17 l-33 0 0 270 c0 149 -4 276 -8 282 -12 18 10 53 33 53 11 0 20
-4 20 -9z m-355 -347 c9 -4 21 -17 26 -30 6 -18 16 -24 39 -24 18 0 33 -6 37
-15 9 -24 0 -27 -67 -19 -51 6 -63 10 -70 29 -5 13 -14 26 -20 30 -8 5 -8 11
1 21 12 15 28 18 54 8z m-17 -142 c2 -14 -2 -22 -12 -22 -19 0 -28 14 -20 35
9 21 28 14 32 -13z m130 -71 c3 -36 -1 -48 -18 -61 l-21 -16 22 -67 c18 -55
20 -72 11 -92 -6 -14 -18 -25 -27 -25 -26 0 -17 -40 11 -50 20 -8 24 -15 19
-28 -17 -39 -17 -73 0 -92 13 -14 16 -30 13 -58 -7 -46 5 -72 33 -72 18 0 19
-2 4 -30 -20 -39 -19 -66 6 -106 19 -32 20 -35 4 -62 -24 -41 -53 -58 -62 -36
-3 9 -1 24 4 33 8 12 7 24 -3 42 -7 13 -13 37 -14 53 0 17 -10 40 -22 54 -20
20 -23 35 -23 95 0 40 -4 78 -8 84 -4 7 -5 28 -2 47 4 19 2 43 -4 54 -8 15 -6
29 10 61 15 32 17 46 9 61 -6 11 -15 20 -19 20 -5 0 -12 18 -16 41 -5 29 -3
44 7 52 20 17 48 64 48 80 0 8 -7 20 -15 27 -27 22 -18 42 18 38 30 -3 32 -5
35 -47z m1 -108 c0 -25 -1 -26 -9 -8 -12 27 -12 35 0 35 6 0 10 -12 9 -27z
m339 -10 c2 -13 -6 -27 -20 -38 l-23 -16 28 -22 c30 -25 34 -37 12 -37 -8 0
-21 -16 -29 -35 -18 -41 -32 -44 -48 -10 -8 18 -8 28 1 39 10 12 8 17 -9 26
l-21 11 21 26 c11 14 20 36 20 49 0 37 63 44 68 7z m-498 -227 c0 -35 -16 -41
-46 -17 -23 18 -24 20 -7 30 32 18 53 13 53 -13z m36 -192 c-3 -9 -6 -27 -6
-40 0 -16 -8 -28 -22 -33 -13 -5 -24 -8 -26 -6 -8 7 35 95 46 95 9 0 12 -6 8
-16z m256 -34 c31 0 38 -4 38 -19 0 -42 -53 -53 -67 -14 -3 10 -13 27 -22 38
-10 13 -11 16 -1 8 8 -7 31 -13 52 -13z m-196 -257 c46 -67 64 -127 45 -146
-8 -8 -17 -4 -36 13 -14 13 -25 29 -25 36 0 7 -11 26 -25 42 -31 37 -58 99
-49 113 14 24 50 1 90 -58z m217 20 c21 -41 12 -54 -23 -36 -34 16 -38 37 -12
52 9 6 18 11 19 11 1 0 9 -12 16 -27z m-145 -19 c11 4 24 0 32 -9 7 -8 25 -15
41 -15 16 0 29 -3 29 -6 0 -11 -29 -34 -44 -34 -9 0 -25 -14 -35 -31 l-19 -31
-7 33 c-4 18 -16 46 -26 63 -23 37 -25 53 -4 36 8 -6 23 -9 33 -6z m382 -34
c47 -24 95 -76 116 -125 20 -49 21 -148 0 -196 -29 -69 -96 -132 -159 -149
l-32 -9 36 32 c34 30 58 63 86 116 16 29 17 113 2 183 -12 55 -57 123 -87 132
-9 3 -37 10 -62 17 -37 10 -42 13 -25 20 26 10 81 1 125 -21z m-109 -33 c19
-12 41 -38 51 -57 43 -90 42 -87 30 -165 -21 -132 -70 -195 -152 -195 -54 0
-96 22 -116 62 -20 38 -28 240 -12 273 6 11 29 39 51 63 49 50 93 56 148 19z"></path>
<path d="M5110 1215 c0 -20 5 -25 25 -25 20 0 25 5 25 25 0 20 -5 25 -25 25
-20 0 -25 -5 -25 -25z"></path>
<path d="M5277 634 c-12 -12 -8 -41 7 -53 19 -16 44 14 30 37 -12 19 -27 25
-37 16z"></path>
<path d="M4500 2590 c0 -16 5 -21 23 -18 12 2 22 10 22 18 0 8 -10 16 -22 18
-18 3 -23 -2 -23 -18z"></path>
<path d="M3768 2548 l-25 -32 -94 3 -94 2 -23 -30 c-12 -17 -22 -40 -22 -53 0
-23 -35 -252 -45 -296 -5 -21 -7 -21 -21 -7 -8 8 -20 15 -26 15 -19 0 -58 -50
-58 -76 0 -21 5 -24 33 -24 18 0 38 5 45 12 16 16 16 13 -13 -147 -17 -94 -30
-142 -40 -148 -17 -9 -20 -37 -4 -37 7 0 8 -25 4 -79 l-7 -78 38 -6 c22 -4 71
-7 111 -7 87 0 88 2 110 133 16 103 18 107 42 107 17 0 29 -52 44 -200 3 -31
27 -38 139 -39 106 -1 118 3 118 41 0 16 -24 174 -54 351 -30 177 -59 372 -65
432 -21 200 -20 195 -45 195 -15 0 -33 -12 -48 -32z m59 -34 c8 -114 30 -271
79 -561 30 -177 54 -331 54 -343 0 -22 -26 -38 -40 -24 -5 5 -18 70 -29 146
-11 75 -30 178 -41 229 -11 51 -20 114 -20 139 0 25 -12 106 -26 180 -14 74
-25 142 -25 150 -1 19 11 101 17 118 8 27 29 4 31 -34z m-107 -24 c0 -6 -33
-10 -80 -10 -47 0 -80 4 -80 10 0 6 33 10 80 10 47 0 80 -4 80 -10z m-55 -453
l7 -119 -24 4 c-20 3 -23 9 -26 53 -4 58 17 200 28 188 4 -4 11 -61 15 -126z
m-227 57 c-4 -23 -26 -30 -34 -10 -8 20 15 51 29 37 5 -5 7 -17 5 -27z m192
-306 c0 -26 -29 -188 -35 -198 -3 -5 -13 -10 -21 -10 -17 0 -18 35 -3 100 9
38 13 63 18 113 2 12 41 8 41 -5z"></path>
<path d="M6515 2500 c-10 -11 -28 -20 -41 -20 -13 0 -28 -9 -34 -19 -6 -13
-10 -174 -10 -454 l0 -435 126 -7 c193 -11 268 -4 348 33 97 46 95 33 94 427
0 182 -5 348 -10 370 -23 92 -105 125 -318 125 -124 0 -139 -2 -155 -20z m380
-30 c79 -40 87 -63 82 -249 -2 -84 0 -213 4 -286 10 -174 -1 -262 -35 -292
-27 -23 -135 -67 -144 -59 -9 9 20 36 39 36 12 0 26 16 40 48 21 45 22 58 20
282 -3 262 -13 412 -31 451 -22 48 -122 79 -252 79 -57 0 -88 4 -88 11 0 7 49
10 158 7 144 -3 161 -5 207 -28z m-212 -114 c16 -12 17 -40 17 -333 0 -338 -1
-343 -47 -343 l-23 0 0 345 c0 322 1 345 18 345 9 0 25 -7 35 -14z"></path>
<path d="M4060 2385 c0 -8 -9 -19 -19 -25 -24 -12 -37 -48 -22 -63 7 -7 15 -6
27 3 9 8 28 14 42 15 22 0 28 5 30 28 2 16 -2 35 -9 43 -15 18 -49 18 -49 -1z
m40 -29 c0 -8 -5 -18 -11 -22 -14 -8 -33 11 -25 25 10 16 36 13 36 -3z"></path>
<path d="M5654 2260 c-6 -25 -9 -28 -25 -19 -11 5 -24 7 -29 4 -17 -10 -11
-44 9 -55 30 -15 41 -12 41 12 l0 21 23 -21 c43 -40 83 -23 70 30 -9 34 -33
58 -60 58 -18 0 -25 -7 -29 -30z m68 -15 c8 -19 8 -29 0 -37 -23 -23 -61 14
-48 47 9 23 35 18 48 -10z"></path>
<path d="M4880 2059 c0 -20 21 -49 35 -49 18 0 20 31 3 48 -15 15 -38 16 -38
1z"></path>
<path d="M5485 1949 c-5 -14 -2 -25 6 -30 20 -12 23 -11 36 11 11 16 10 21 -6
30 -27 14 -29 13 -36 -11z"></path>
<path d="M5640 1815 c-7 -8 -10 -21 -7 -29 5 -14 79 -66 92 -66 12 0 4 67 -11
88 -17 25 -56 29 -74 7z m58 -17 c16 -16 15 -38 -2 -38 -19 0 -48 29 -41 41 8
13 29 11 43 -3z"></path>
<path d="M4045 1677 c-19 -14 -13 -37 9 -37 7 0 20 8 29 18 27 30 -2 44 -38
19z"></path>
<path d="M5627 1603 c-14 -13 -6 -43 13 -53 24 -13 40 -6 40 19 0 30 -35 53
-53 34z"></path>
<path d="M6286 1575 c-3 -8 -12 -15 -19 -15 -21 0 -77 -30 -77 -41 0 -6 5 -20
11 -31 9 -17 17 -19 50 -14 24 4 39 2 39 -4 0 -19 49 -10 79 16 36 30 39 56
11 84 -24 24 -85 27 -94 5z m82 -17 c19 -19 14 -46 -13 -64 -33 -21 -60 -15
-61 16 -3 46 45 77 74 48z"></path>
<path d="M5685 1539 c-22 -12 -47 -25 -55 -29 -10 -5 -14 -19 -12 -42 3 -30 0
-34 -30 -43 -45 -14 -44 -40 2 -40 19 0 40 -3 45 -6 6 -4 33 -4 60 -2 66 5 74
5 113 -3 l32 -6 0 46 c0 117 -68 172 -155 125z m104 -23 c26 -28 41 -109 22
-120 -6 -4 -23 -1 -38 6 -21 10 -29 23 -35 57 -4 24 -12 49 -18 55 -27 34 38
35 69 2z m-121 -122 c-10 -10 -28 6 -28 24 0 15 1 15 17 -1 9 -9 14 -19 11
-23z"></path>
<path d="M4442 1515 c-16 -35 -16 -35 23 -35 32 0 35 2 35 30 0 25 -4 30 -23
30 -16 0 -28 -9 -35 -25z"></path>
<path d="M4554 1466 c-15 -12 -17 -17 -6 -27 18 -20 14 -39 -8 -39 -29 0 -38
-30 -14 -47 16 -12 20 -12 30 2 8 11 14 13 19 5 4 -6 0 -19 -9 -29 -21 -23
-20 -30 4 -24 11 3 20 1 20 -3 0 -5 33 -10 74 -11 69 -2 76 0 90 22 19 29 21
69 4 82 -26 20 -80 33 -98 23 -11 -6 -26 -5 -44 3 -28 13 -32 22 -16 32 6 3
10 10 10 16 0 14 -34 11 -56 -5z m56 -63 c-1 -18 -18 -35 -24 -24 -4 6 -4 16
-1 21 7 12 25 13 25 3z m105 -7 c40 -17 45 -41 17 -76 -23 -28 -42 -19 -42 20
0 16 -7 33 -16 38 -9 5 -14 14 -10 21 9 14 10 14 51 -3z"></path>
<path d="M4125 1444 c-21 -21 -16 -58 8 -62 15 -3 18 1 13 16 -4 11 0 24 9 32
8 7 15 16 15 21 0 15 -27 10 -45 -7z"></path>
<path d="M6437 1413 c-14 -13 -7 -74 8 -79 21 -8 45 14 45 40 0 34 -34 59 -53
39z m33 -38 c0 -8 -4 -15 -10 -15 -5 0 -10 7 -10 15 0 8 5 15 10 15 6 0 10 -7
10 -15z"></path>
<path d="M4320 1380 c-29 -25 -32 -31 -20 -40 20 -13 96 -24 109 -15 17 10 13
50 -7 68 -26 24 -42 21 -82 -13z m70 -5 c13 -16 6 -35 -15 -35 -18 0 -28 17
-21 35 7 19 20 19 36 0z"></path>
<path d="M4173 1387 c-4 -8 -16 -16 -25 -20 -10 -3 -18 -17 -18 -29 -1 -21 -2
-22 -14 -5 -7 9 -26 17 -41 17 -24 0 -27 -3 -23 -28 2 -16 -2 -34 -9 -41 -25
-23 -15 -48 19 -53 63 -10 122 22 102 54 -5 7 2 9 20 4 33 -8 86 25 86 55 0
43 -77 80 -97 46z m71 -29 c8 -14 6 -22 -11 -40 -27 -26 -29 -24 -38 25 -7 36
-6 39 15 35 13 -1 28 -11 34 -20z m-124 -58 c36 -30 35 -45 -5 -52 -15 -2 -19
2 -18 19 1 11 -4 27 -12 33 -16 13 -20 30 -7 30 4 0 23 -14 42 -30z"></path>
<path d="M5226 1383 c-9 -9 -7 -73 2 -73 53 1 73 47 28 68 -13 6 -27 8 -30 5z"></path>
<path d="M6356 1365 c-4 -13 -9 -13 -24 -4 -30 19 -52 4 -52 -34 0 -67 63 -80
68 -14 2 28 7 37 20 35 9 -2 18 5 20 15 4 21 -23 23 -32 2z m-31 -45 c0 -27
-22 -39 -31 -16 -8 22 3 49 19 43 6 -2 12 -14 12 -27z"></path>
<path d="M3906 1342 c-6 -11 21 -52 35 -52 17 0 5 55 -13 58 -9 2 -19 -1 -22
-6z"></path>
<path d="M5798 1329 c-25 -14 -23 -56 3 -70 28 -15 41 0 37 41 -3 37 -14 45
-40 29z m22 -34 c0 -8 -4 -15 -10 -15 -5 0 -10 7 -10 15 0 8 5 15 10 15 6 0
10 -7 10 -15z"></path>
<path d="M6210 1311 c0 -28 19 -36 38 -17 15 15 15 18 2 26 -24 15 -40 12 -40
-9z"></path>
<path d="M5722 1283 c2 -10 10 -18 18 -18 8 0 16 8 18 18 2 12 -3 17 -18 17
-15 0 -20 -5 -18 -17z"></path>
<path d="M5959 1263 c-5 -15 -9 -36 -7 -47 2 -17 10 -21 43 -21 39 0 40 1 38
33 -2 62 -54 87 -74 35z m58 -38 c-6 -17 -37 -18 -43 -1 -3 9 0 23 7 32 12 14
14 14 26 -2 7 -10 12 -23 10 -29z"></path>
<path d="M5900 1236 c0 -19 -5 -26 -20 -26 -16 0 -20 -7 -20 -35 0 -22 5 -35
13 -35 19 0 37 21 37 42 0 10 5 18 11 18 14 0 7 52 -8 58 -8 2 -13 -6 -13 -22z"></path>
<path d="M5381 1211 c-8 -5 -16 -23 -17 -39 -3 -28 -1 -31 29 -31 17 1 43 -1
57 -3 19 -2 26 3 34 25 9 24 7 31 -9 43 -21 16 -73 18 -94 5z m84 -36 c0 -15
-6 -19 -24 -17 -29 3 -53 21 -45 34 3 5 20 8 37 6 24 -2 32 -8 32 -23z"></path>
<path d="M6314 1185 c-9 -23 3 -45 26 -45 25 0 37 25 20 45 -16 19 -39 19 -46
0z"></path>
<path d="M5581 1156 c-6 -7 -25 -16 -41 -20 -17 -3 -30 -12 -30 -20 0 -20 54
-48 100 -52 19 -2 49 -6 65 -10 39 -7 76 27 59 54 -31 50 -127 80 -153 48z
m82 -17 c42 -22 58 -41 46 -56 -6 -7 -19 -13 -28 -13 -20 1 -93 64 -84 73 10
11 42 8 66 -4z"></path>
<path d="M4217 1094 c-4 -4 -7 -16 -7 -26 0 -13 7 -18 26 -18 21 0 25 4 22 22
-3 23 -27 35 -41 22z"></path>
<path d="M5417 1063 c-4 -3 -7 -15 -7 -25 0 -13 8 -18 30 -18 35 0 41 23 11
40 -23 12 -26 12 -34 3z"></path>
<path d="M6396 1034 c-19 -18 -19 -20 -6 -45 13 -23 68 -26 76 -4 8 19 -22 65
-41 65 -7 0 -21 -7 -29 -16z m54 -35 c0 -5 -9 -9 -20 -9 -19 0 -27 20 -13 33
7 8 33 -11 33 -24z"></path>
<path d="M6324 1009 c-10 -17 13 -36 27 -22 12 12 4 33 -11 33 -5 0 -12 -5
-16 -11z"></path>
<path d="M5682 988 c-25 -25 -6 -68 29 -68 18 0 36 51 24 70 -8 14 -38 13 -53
-2z m33 -38 c-5 -8 -11 -8 -17 -2 -6 6 -7 16 -3 22 5 8 11 8 17 2 6 -6 7 -16
3 -22z"></path>
<path d="M4630 975 c-25 -8 -54 -19 -65 -24 -41 -19 -59 -21 -92 -9 -27 10
-37 10 -51 0 -9 -7 -25 -15 -34 -18 -11 -4 -18 -16 -18 -30 0 -19 5 -24 26
-24 23 0 25 -3 19 -22 -4 -13 -14 -48 -22 -79 -14 -50 -17 -55 -39 -51 -32 6
-120 -27 -146 -55 -24 -26 -30 -82 -10 -105 6 -8 36 -24 67 -37 57 -24 57 -24
83 -4 15 11 31 29 37 41 13 29 25 28 25 -3 0 -21 10 -30 66 -55 89 -40 137
-52 209 -52 153 -1 258 104 258 257 1 91 -28 158 -93 219 -68 64 -131 78 -220
51z m133 -16 c47 -13 113 -76 137 -133 44 -99 31 -210 -33 -283 -35 -40 -98
-73 -137 -72 -22 1 -21 2 8 12 22 7 48 29 74 64 35 45 41 62 45 115 3 35 0 83
-7 108 -6 25 -14 57 -17 73 -5 27 -33 52 -118 102 -36 22 -38 24 -15 25 14 0
42 -5 63 -11z m-293 -40 c0 -12 -29 -38 -42 -39 -10 0 -10 34 -1 43 11 11 43
8 43 -4z m231 -12 c43 -28 60 -77 66 -182 4 -65 1 -90 -16 -136 -25 -65 -40
-80 -97 -98 -34 -11 -46 -11 -79 3 -22 9 -47 24 -57 33 -24 22 -52 154 -45
217 15 143 133 227 228 163z m-327 -223 c20 -53 -5 -147 -44 -159 -33 -10 -39
3 -18 42 15 29 18 49 13 86 -5 45 -5 47 19 47 13 0 27 -7 30 -16z"></path>
<path d="M1345 960 c-8 -13 23 -50 42 -50 25 0 33 -50 33 -208 0 -190 -2 -200
-43 -204 -36 -4 -43 -16 -23 -43 13 -18 18 -19 71 -7 43 8 69 9 101 1 24 -6
50 -9 59 -5 18 7 20 46 2 46 -8 0 -24 12 -38 26 -23 25 -24 30 -24 196 l-1
170 39 25 c24 15 37 30 35 41 -3 15 -20 17 -125 20 -80 2 -124 -1 -128 -8z
m208 -17 c-13 -2 -35 -2 -50 0 -16 2 -5 4 22 4 28 0 40 -2 28 -4z m-18 -452
c-8 -8 -35 22 -35 38 0 12 5 10 20 -9 10 -14 17 -27 15 -29z"></path>
<path d="M2427 964 c-13 -13 -7 -44 8 -44 8 0 22 -11 31 -25 14 -22 16 -50 12
-201 l-4 -176 -27 -20 c-15 -11 -27 -26 -27 -34 0 -12 32 -13 208 -8 114 4
209 8 210 10 10 8 13 122 4 128 -19 12 -62 -5 -62 -24 0 -29 -56 -70 -95 -70
-51 0 -75 37 -75 115 0 49 4 64 16 69 22 8 44 -11 44 -38 0 -14 6 -22 18 -22
9 -1 24 -3 32 -5 12 -3 16 11 18 78 3 79 -7 123 -28 123 -15 0 -48 -36 -52
-57 -2 -10 -12 -18 -23 -18 -18 0 -20 8 -23 78 l-3 78 63 -3 c56 -3 63 -5 66
-25 4 -25 47 -57 68 -49 12 4 14 21 12 73 l-3 68 -191 3 c-104 1 -193 -1 -197
-4z m116 -21 c-13 -2 -33 -2 -45 0 -13 2 -3 4 22 4 25 0 35 -2 23 -4z m194 1
c-3 -3 -12 -4 -19 -1 -8 3 -5 6 6 6 11 1 17 -2 13 -5z m61 -48 c4 -63 -17 -58
-34 8 -12 46 -12 47 9 44 19 -3 22 -11 25 -52z m-206 -84 c2 -78 1 -92 -12
-90 -11 3 -16 21 -18 78 -2 41 0 86 3 99 12 45 24 6 27 -87z m128 -91 c0 -73
-11 -96 -30 -61 -13 24 4 130 21 130 5 0 9 -31 9 -69z m-130 -91 c0 -44 6 -82
15 -100 18 -34 4 -41 -27 -13 -14 13 -18 31 -18 93 0 42 3 80 7 83 17 18 23 1
23 -63z m240 -93 c0 -38 -21 -73 -38 -63 -8 4 -8 16 -1 39 6 17 12 38 15 45 7
25 24 11 24 -21z"></path>
<path d="M5614 959 c-8 -14 11 -33 25 -25 16 10 13 36 -3 36 -8 0 -18 -5 -22
-11z"></path>
<path d="M5893 957 c-3 -5 -17 -13 -31 -19 -24 -10 -25 -12 -7 -16 53 -11 55
-21 55 -223 l0 -187 -27 -20 c-16 -11 -24 -24 -20 -29 5 -4 95 -8 200 -8 180
0 195 1 234 22 144 77 165 305 39 421 -67 62 -120 75 -293 71 -79 -2 -147 -8
-150 -12z m378 -39 c55 -28 68 -41 94 -88 26 -47 30 -65 30 -130 0 -58 -6 -85
-22 -116 -28 -52 -72 -90 -121 -104 -71 -19 -85 -7 -26 25 79 42 121 213 76
307 -26 53 -108 105 -182 117 -77 12 -72 21 12 21 65 0 84 -4 139 -32z m-165
-24 c79 -36 104 -60 104 -100 0 -18 5 -36 10 -39 6 -3 10 -35 10 -70 0 -35 -4
-67 -10 -70 -5 -3 -10 -14 -10 -23 0 -10 -13 -33 -29 -52 -26 -32 -33 -34 -99
-38 -65 -4 -71 -3 -83 19 -22 41 -24 183 -4 249 17 56 17 61 1 85 -10 15 -14
34 -11 45 9 28 50 26 121 -6z m54 -418 c0 -2 -9 -6 -20 -9 -11 -3 -18 -1 -14
4 5 9 34 13 34 5z"></path>
<path d="M6711 953 c-113 -23 -160 -68 -146 -139 8 -45 47 -85 115 -119 30
-15 62 -30 69 -34 48 -24 73 -104 44 -140 -18 -22 -22 -23 -48 -10 -29 14 -31
17 -59 82 -13 30 -21 38 -39 35 -20 -3 -22 -8 -19 -55 2 -29 0 -53 -5 -53 -6
0 -18 18 -29 40 -10 22 -22 40 -26 40 -5 0 -8 -30 -8 -66 0 -65 0 -66 25 -60
18 5 28 1 37 -13 9 -16 16 -17 39 -9 19 7 45 6 79 -1 89 -19 131 -15 171 19
68 55 87 136 49 209 -19 39 -33 47 -147 96 -73 31 -99 79 -63 115 27 27 40 22
65 -23 11 -20 23 -37 28 -37 4 0 7 21 7 47 0 54 8 50 43 -18 15 -29 29 -45 45
-47 21 -3 22 -1 22 77 0 83 -4 90 -40 71 -10 -6 -43 -6 -81 -2 -43 5 -86 3
-128 -5z m229 -63 c0 -59 -14 -64 -35 -14 -11 28 -12 40 -4 50 24 29 39 16 39
-36z m-200 23 c0 -5 -7 -17 -15 -27 -15 -20 -11 -60 9 -85 6 -8 52 -33 102
-56 84 -39 93 -46 113 -89 20 -40 21 -50 11 -82 -18 -53 -66 -102 -111 -114
-39 -11 -59 -7 -59 9 0 5 15 12 33 15 71 13 104 91 59 139 -12 13 -22 28 -22
33 0 11 -67 69 -85 74 -5 1 -22 10 -36 20 -14 10 -37 22 -52 25 -49 13 -58 65
-21 123 10 15 24 22 44 22 17 0 30 -3 30 -7z m-60 -356 c0 -10 14 -32 31 -48
l31 -29 -39 0 c-21 0 -44 5 -51 12 -13 13 -17 100 -5 112 10 10 33 -23 33 -47z
m201 -13 c-17 -38 -29 -28 -18 16 9 32 13 37 20 24 6 -10 5 -25 -2 -40z"></path>
<path d="M6434 896 c-16 -42 28 -74 62 -46 21 18 17 35 -11 48 -34 16 -44 15
-51 -2z m43 -32 c-9 -9 -28 6 -21 18 4 6 10 6 17 -1 6 -6 8 -13 4 -17z"></path>
<path d="M5700 865 c0 -18 5 -25 20 -25 15 0 20 7 20 25 0 18 -5 25 -20 25
-15 0 -20 -7 -20 -25z"></path>
<path d="M3218 582 c-33 -20 -37 -57 -7 -72 31 -17 62 -8 79 22 29 52 -17 83
-72 50z m57 -27 c0 -18 -30 -44 -40 -34 -3 4 -1 18 5 33 11 30 35 31 35 1z"></path>
<path d="M4900 515 c0 -22 4 -26 23 -23 14 2 22 10 22 23 0 13 -8 21 -22 23
-19 3 -23 -1 -23 -23z"></path>
<path d="M5040 460 c0 -23 22 -27 39 -7 13 16 5 27 -21 27 -11 0 -18 -7 -18
-20z"></path>
<path d="M4961 445 c-18 -8 -36 -13 -40 -11 -3 2 -14 -2 -24 -9 -23 -17 -13
-75 14 -75 10 0 21 -4 24 -10 11 -17 64 -11 85 10 24 24 25 52 4 85 -19 29
-18 29 -63 10z m54 -49 c0 -16 -7 -33 -16 -39 -26 -16 -49 -1 -49 31 0 36 8
44 40 40 20 -2 25 -8 25 -32z"></path>
<path d="M4665 410 c-4 -6 -14 -9 -23 -8 -9 2 -18 -5 -20 -14 -2 -12 3 -18 15
-18 10 0 27 -7 37 -15 26 -20 39 -19 66 3 19 16 21 22 11 40 -9 16 -21 22 -46
22 -18 0 -37 -5 -40 -10z m67 -25 c0 -5 -6 -14 -15 -19 -17 -11 -51 10 -41 26
7 12 54 6 56 -7z"></path>
<path d="M5280 405 c-43 -15 -56 -55 -18 -55 13 0 29 -5 35 -11 6 -6 23 -9 39
-7 35 4 45 40 18 69 -19 21 -25 22 -74 4z m68 -28 c4 -21 -25 -34 -40 -19 -8
8 -8 16 2 27 16 19 34 15 38 -8z"></path>
<path d="M4370 380 c0 -5 -11 -10 -25 -10 -32 0 -32 -23 0 -44 31 -20 84 -21
91 -1 9 21 -23 65 -46 65 -11 0 -20 -4 -20 -10z m41 -43 c-5 -5 -17 -7 -26 -3
-14 5 -15 9 -5 21 10 12 16 13 27 4 9 -8 10 -16 4 -22z"></path>
<path d="M92 328 c-14 -14 -16 -38 -4 -38 14 0 43 36 35 43 -9 10 -17 9 -31
-5z"></path>
<path d="M526 284 c-9 -8 -21 -35 -27 -59 -12 -49 -32 -72 -69 -77 -14 -2 -26
-11 -28 -21 -5 -24 21 -22 67 7 21 14 54 31 73 39 21 9 41 27 51 48 16 33 16
34 -9 57 -30 26 -37 27 -58 6z"></path>
<path d="M785 86 c-16 -16 -25 -36 -25 -56 0 -30 1 -31 43 -28 32 2 41 7 38
18 -2 8 -4 30 -5 49 -1 44 -19 49 -51 17z m30 -67 c-7 -10 -35 -1 -35 11 0 5
9 6 20 3 11 -3 17 -9 15 -14z"></path>
<path d="M32 67 c-37 -38 -39 -47 -13 -47 19 0 71 52 71 71 0 19 -27 8 -58
-24z"></path>
<path d="M4062 48 c-18 -18 -14 -38 6 -38 21 0 56 33 45 43 -10 11 -38 8 -51
-5z"></path>
</g>
</svg>