<svg id="svg" xmlns="http://www.w3.org/2000/svg" xmlns:xlink="http://www.w3.org/1999/xlink" width="400" height="322.36180904522615" viewBox="0, 0, 400,322.36180904522615"><g id="svgg"><path id="path0" d="M92.912 2.236 C 84.904 8.847,80.891 13.596,81.223 16.069 C 81.375 17.204,82.384 19.352,82.849 19.530 C 83.023 19.597,83.166 19.808,83.166 20.000 C 83.166 20.191,83.392 20.489,83.668 20.661 C 83.945 20.834,84.171 21.077,84.171 21.202 C 84.171 21.515,89.512 26.879,89.826 26.882 C 89.966 26.883,90.219 27.107,90.388 27.378 C 90.836 28.095,94.264 30.439,94.648 30.292 C 94.828 30.223,94.975 30.248,94.976 30.347 C 94.976 30.446,95.428 30.533,95.981 30.540 C 96.533 30.547,96.985 30.450,96.985 30.325 C 96.985 30.199,97.155 30.162,97.362 30.242 C 97.569 30.321,97.739 30.270,97.739 30.128 C 97.739 29.986,97.852 29.940,97.990 30.025 C 98.128 30.111,98.241 30.054,98.241 29.899 C 98.241 29.745,98.340 29.680,98.461 29.754 C 98.582 29.829,98.983 29.610,99.353 29.267 C 99.723 28.924,100.103 28.643,100.198 28.643 C 100.432 28.643,107.035 22.040,107.035 21.807 C 107.035 21.705,107.528 21.129,108.130 20.527 C 109.313 19.344,111.055 16.455,111.055 15.677 C 111.055 13.768,107.743 9.662,102.283 4.801 C 100.129 2.884,98.093 1.019,97.758 0.657 C 96.679 -0.507,95.944 -0.268,92.912 2.236 M193.342 1.678 C 192.374 2.589,189.943 4.640,187.940 6.235 C 181.870 11.065,179.832 12.728,178.518 13.921 L 177.261 15.061 178.329 16.082 C 178.916 16.644,179.397 17.187,179.397 17.290 C 179.397 17.392,179.708 17.818,180.088 18.235 C 181.766 20.080,183.781 25.343,184.554 29.899 C 185.386 34.807,185.427 37.718,185.427 92.211 L 185.427 146.859 186.118 146.905 C 186.498 146.930,187.601 147.039,188.568 147.147 C 190.542 147.366,203.172 147.330,205.944 147.097 L 207.742 146.946 207.950 144.013 C 208.230 140.062,208.223 89.614,207.942 82.035 C 207.673 74.792,207.874 73.033,209.195 71.069 C 209.666 70.370,210.050 69.773,210.050 69.742 C 210.050 69.651,213.618 66.108,213.790 66.027 C 213.875 65.987,214.577 65.527,215.350 65.003 C 217.971 63.228,220.380 63.772,223.180 66.771 C 223.904 67.547,224.682 68.375,224.908 68.610 C 225.134 68.845,225.579 69.701,225.897 70.511 L 226.474 71.985 226.491 95.226 C 226.510 121.855,226.677 124.599,228.786 132.968 C 230.150 138.379,233.581 145.577,235.070 146.148 C 235.266 146.223,235.427 146.420,235.427 146.586 C 235.427 146.922,236.966 148.492,237.296 148.492 C 237.412 148.492,237.646 148.681,237.814 148.912 C 238.157 149.381,238.945 149.588,238.945 149.209 C 238.945 149.075,239.044 149.026,239.164 149.101 C 239.285 149.176,239.687 148.956,240.057 148.613 C 240.427 148.270,240.820 147.990,240.931 147.990 C 241.042 147.990,241.438 147.707,241.810 147.362 C 242.183 147.016,242.599 146.734,242.734 146.734 C 242.870 146.734,243.046 146.564,243.125 146.357 C 243.205 146.149,243.431 145.980,243.628 145.980 C 243.825 145.980,244.051 145.810,244.130 145.603 C 244.210 145.396,244.436 145.226,244.633 145.226 C 244.830 145.226,245.056 145.057,245.135 144.849 C 245.215 144.642,245.436 144.472,245.628 144.472 C 245.819 144.472,246.117 144.246,246.289 143.970 C 246.462 143.693,246.745 143.467,246.918 143.467 C 247.090 143.467,247.373 143.241,247.546 142.965 C 247.718 142.688,248.001 142.462,248.174 142.462 C 248.347 142.462,248.629 142.236,248.802 141.960 C 248.975 141.683,249.250 141.457,249.414 141.457 C 249.578 141.457,249.935 141.175,250.206 140.829 C 250.478 140.484,250.815 140.201,250.956 140.201 C 251.097 140.201,251.497 139.862,251.846 139.447 C 252.195 139.033,252.596 138.693,252.737 138.693 C 252.878 138.693,253.309 138.298,253.695 137.814 C 254.081 137.330,254.521 136.935,254.674 136.935 C 255.135 136.935,257.310 134.414,257.126 134.091 C 257.033 133.928,255.913 132.324,254.637 130.528 C 248.971 122.552,248.046 116.424,249.327 95.352 C 250.745 72.044,249.490 63.416,243.517 55.402 C 241.490 52.682,230.895 41.985,229.146 40.892 C 223.849 37.582,219.964 38.396,214.260 44.012 C 211.630 46.601,209.200 48.481,208.472 48.490 C 208.364 48.491,208.350 46.090,208.441 43.153 C 209.049 23.438,205.503 9.351,197.908 1.319 C 196.163 -0.526,195.639 -0.485,193.342 1.678 M135.424 5.201 C 134.666 5.832,131.844 8.057,129.154 10.146 C 124.714 13.594,119.095 18.602,119.095 19.112 C 119.095 19.224,119.849 20.425,120.771 21.781 C 124.624 27.451,126.489 33.500,126.811 41.375 L 126.957 44.936 125.853 45.240 C 125.246 45.408,123.392 45.897,121.734 46.328 L 118.719 47.111 118.648 53.894 C 118.577 60.703,118.651 61.958,119.103 61.679 C 119.237 61.596,119.347 61.629,119.347 61.752 C 119.347 61.875,120.845 61.998,122.676 62.025 C 124.507 62.052,126.192 62.132,126.419 62.202 C 127.029 62.389,127.243 67.479,127.046 77.136 C 126.314 113.057,126.515 117.894,129.038 125.142 C 130.577 129.562,133.386 134.555,135.708 136.996 C 136.245 137.560,136.683 138.091,136.683 138.175 C 136.683 138.363,140.535 142.211,140.723 142.211 C 140.797 142.211,141.404 142.720,142.072 143.342 C 142.739 143.964,143.428 144.472,143.601 144.472 C 143.774 144.472,143.981 144.642,144.061 144.849 C 144.140 145.057,144.378 145.226,144.590 145.226 C 144.802 145.226,144.975 145.325,144.975 145.446 C 144.975 145.671,149.023 148.422,149.173 148.299 C 149.219 148.261,149.497 148.455,149.792 148.730 C 150.086 149.004,150.423 149.170,150.541 149.097 C 150.658 149.025,150.754 149.089,150.754 149.240 C 150.754 149.431,150.898 149.438,151.223 149.264 C 151.481 149.126,151.756 149.076,151.834 149.154 C 151.912 149.232,152.123 149.058,152.304 148.768 C 152.485 148.478,152.724 148.241,152.835 148.241 C 153.152 148.241,155.779 146.196,155.779 145.950 C 155.779 145.828,155.896 145.729,156.038 145.729 C 156.397 145.729,160.050 142.955,160.050 142.683 C 160.050 142.562,160.201 142.462,160.385 142.462 C 160.570 142.462,161.210 142.010,161.809 141.457 C 162.408 140.905,162.971 140.452,163.061 140.452 C 163.151 140.452,163.893 139.830,164.710 139.070 C 165.527 138.310,166.257 137.688,166.334 137.688 C 166.591 137.688,169.347 134.787,169.347 134.516 C 169.347 134.368,168.188 133.479,166.771 132.540 C 157.019 126.074,151.811 119.453,150.264 111.558 C 149.533 107.828,149.313 96.750,149.748 85.553 C 149.877 82.236,150.047 76.300,150.126 72.362 C 150.206 68.423,150.332 64.494,150.407 63.631 L 150.543 62.060 159.568 62.060 L 168.593 62.060 168.593 51.633 L 168.593 41.206 160.616 41.204 C 156.228 41.203,152.045 41.130,151.319 41.043 L 150.000 40.885 150.000 37.697 C 150.000 23.202,144.521 8.356,137.786 4.603 L 136.802 4.055 135.424 5.201 M16.819 40.138 C 16.067 40.764,13.304 42.948,10.678 44.992 C -0.091 53.374,-0.595 54.008,1.376 56.701 C 7.105 64.531,8.328 71.051,8.321 93.719 C 8.318 103.840,8.221 108.058,7.526 128.392 C 6.614 155.057,7.509 172.566,10.195 180.626 C 11.554 184.705,15.751 192.462,16.599 192.462 C 16.728 192.462,16.834 192.616,16.834 192.804 C 16.834 192.992,17.343 193.693,17.965 194.360 C 18.587 195.028,19.095 195.640,19.095 195.720 C 19.095 195.800,20.000 196.765,21.106 197.864 C 22.211 198.963,23.117 199.752,23.119 199.617 C 23.122 199.482,23.206 199.499,23.308 199.654 C 23.409 199.808,24.172 200.277,25.003 200.695 C 26.220 201.307,26.599 201.649,26.957 202.460 C 27.510 203.715,29.058 205.159,31.167 206.389 C 32.059 206.909,33.149 207.606,33.589 207.939 C 34.029 208.271,34.489 208.543,34.613 208.543 C 34.898 208.543,35.930 209.631,35.930 209.932 C 35.930 210.229,40.020 214.179,40.264 214.118 C 40.367 214.092,40.452 214.190,40.452 214.336 C 40.452 214.483,40.565 214.533,40.704 214.447 C 40.842 214.362,40.955 214.412,40.955 214.558 C 40.955 214.704,41.040 214.806,41.143 214.784 C 41.367 214.737,41.844 214.910,43.808 215.753 C 44.618 216.100,45.409 216.406,45.567 216.433 C 45.725 216.460,46.100 216.617,46.401 216.782 C 46.701 216.947,47.210 217.132,47.531 217.191 C 47.853 217.251,48.144 217.322,48.178 217.349 C 48.213 217.377,48.326 217.424,48.430 217.454 C 48.625 217.510,49.634 217.945,52.038 219.010 C 52.839 219.365,53.974 220.170,54.667 220.873 C 55.337 221.554,56.031 222.111,56.209 222.111 C 56.387 222.111,56.533 222.230,56.533 222.377 C 56.533 222.523,56.646 222.573,56.784 222.487 C 56.922 222.402,57.035 222.459,57.035 222.613 C 57.035 222.768,57.148 222.824,57.286 222.739 C 57.425 222.653,57.538 222.703,57.538 222.849 C 57.538 222.996,57.622 223.102,57.726 223.086 C 57.830 223.069,57.999 223.084,58.103 223.117 C 58.207 223.151,58.376 223.202,58.480 223.231 C 58.584 223.260,58.987 223.415,59.376 223.576 C 59.765 223.737,60.192 223.869,60.326 223.869 C 60.460 223.869,61.129 224.153,61.813 224.499 C 63.876 225.545,63.893 225.609,63.585 231.074 C 63.438 233.675,63.317 238.526,63.317 241.854 L 63.317 247.904 62.578 249.019 C 61.459 250.709,59.826 251.740,55.849 253.272 C 54.800 253.676,53.705 254.223,53.415 254.489 C 53.126 254.754,51.233 255.717,49.209 256.630 C 41.511 260.102,40.011 261.254,36.227 266.610 C 35.387 267.800,34.137 269.432,33.451 270.236 C 32.068 271.857,29.899 275.352,29.899 275.961 C 29.899 276.229,30.189 276.376,30.822 276.430 C 31.330 276.472,31.782 276.621,31.828 276.760 C 31.924 277.053,29.938 278.310,29.014 278.542 C 28.605 278.644,28.337 278.929,28.241 279.362 C 27.932 280.757,26.868 284.685,25.898 288.008 C 23.412 296.529,23.501 300.990,26.215 303.868 C 26.721 304.405,27.136 304.887,27.136 304.940 C 27.136 304.993,27.426 305.474,27.780 306.010 C 28.175 306.607,28.550 307.703,28.747 308.839 C 29.161 311.220,29.351 311.547,31.087 312.867 C 32.710 314.101,32.941 314.487,33.518 316.935 C 33.999 318.980,35.147 321.656,35.459 321.463 C 35.580 321.388,35.678 321.454,35.678 321.608 C 35.678 321.763,35.784 321.824,35.912 321.744 C 36.041 321.665,36.222 321.722,36.315 321.872 C 36.407 322.022,36.638 322.086,36.826 322.013 C 37.015 321.941,37.229 321.977,37.301 322.093 C 37.653 322.663,43.457 322.119,45.005 321.371 C 46.165 320.810,47.114 320.705,47.364 321.110 C 47.451 321.250,47.627 321.300,47.756 321.220 C 47.885 321.141,47.990 321.184,47.990 321.315 C 47.990 321.460,48.340 321.476,48.869 321.357 C 49.353 321.248,49.749 321.217,49.749 321.288 C 49.749 321.360,49.906 321.288,50.097 321.129 C 50.453 320.834,53.543 320.056,54.329 320.064 C 54.568 320.067,54.826 319.968,54.903 319.844 C 54.979 319.721,55.196 319.679,55.385 319.752 C 55.574 319.824,55.804 319.761,55.896 319.611 C 55.989 319.461,56.170 319.404,56.299 319.483 C 56.427 319.563,56.533 319.501,56.533 319.347 C 56.533 319.192,56.646 319.136,56.784 319.221 C 56.922 319.307,57.035 319.250,57.035 319.095 C 57.035 318.941,57.133 318.875,57.253 318.949 C 57.819 319.299,59.045 316.927,59.045 315.482 C 59.045 314.960,58.694 313.982,58.161 313.024 C 56.471 309.981,56.024 308.853,55.800 307.069 C 55.598 305.460,55.439 305.092,54.257 303.498 C 51.496 299.774,52.700 294.835,58.509 286.055 C 59.149 285.088,59.708 284.221,59.750 284.129 C 60.056 283.463,65.076 278.884,66.109 278.329 C 69.989 276.243,74.032 279.264,74.985 284.961 C 75.118 285.752,75.250 285.897,75.963 286.031 C 76.865 286.200,77.912 287.199,79.609 289.510 C 80.192 290.305,80.773 290.955,80.900 290.955 C 81.026 290.955,81.433 291.235,81.803 291.578 C 82.173 291.921,82.574 292.141,82.695 292.066 C 82.816 291.991,82.915 292.044,82.915 292.183 C 82.915 292.453,86.085 294.054,86.619 294.054 C 86.792 294.054,86.935 294.136,86.935 294.236 C 86.935 294.423,88.168 294.839,88.505 294.765 C 88.609 294.742,88.693 294.837,88.693 294.975 C 88.693 295.113,88.835 295.228,89.008 295.229 C 89.180 295.231,90.113 295.685,91.080 296.238 C 93.566 297.659,93.768 297.797,94.292 298.430 C 94.655 298.868,95.025 298.996,95.935 298.997 C 96.650 298.999,97.628 299.241,98.430 299.614 C 99.155 299.952,99.750 300.149,99.753 300.051 C 99.755 299.954,99.848 300.019,99.960 300.195 C 100.217 300.600,101.421 300.787,103.565 300.754 C 104.803 300.735,105.512 300.864,106.256 301.244 C 106.812 301.527,107.469 301.798,107.716 301.847 C 107.964 301.895,108.368 302.022,108.614 302.128 C 108.861 302.235,110.105 302.252,111.378 302.168 C 112.652 302.083,113.863 302.002,114.070 301.989 C 115.434 301.902,121.061 300.946,121.430 300.739 C 121.677 300.599,121.988 300.553,122.121 300.634 C 122.253 300.716,122.362 300.683,122.362 300.559 C 122.362 300.269,122.793 300.207,125.377 300.125 C 126.552 300.088,127.569 300.037,127.638 300.012 C 127.707 299.987,128.149 299.916,128.620 299.855 C 129.091 299.794,129.610 299.633,129.774 299.497 C 129.938 299.362,130.138 299.317,130.220 299.399 C 130.302 299.481,130.517 299.453,130.699 299.338 C 130.881 299.223,131.115 299.112,131.219 299.093 C 131.322 299.074,131.464 299.030,131.533 298.995 C 131.602 298.960,131.771 298.904,131.910 298.869 C 132.048 298.835,132.217 298.778,132.286 298.744 C 132.356 298.709,132.525 298.653,132.663 298.618 C 132.802 298.584,132.971 298.527,133.040 298.492 C 133.109 298.458,133.279 298.401,133.417 298.367 C 133.555 298.332,133.725 298.276,133.794 298.241 C 133.863 298.207,134.033 298.150,134.171 298.116 C 134.309 298.081,134.450 298.030,134.485 298.003 C 134.519 297.975,134.774 297.909,135.050 297.857 C 135.851 297.704,141.048 295.711,141.394 295.425 C 141.567 295.282,141.709 295.230,141.709 295.310 C 141.709 295.438,143.188 294.994,144.221 294.555 C 144.428 294.467,144.878 294.349,145.220 294.292 C 145.562 294.235,145.968 294.084,146.122 293.956 C 146.277 293.828,146.475 293.795,146.562 293.882 C 146.650 293.970,146.894 293.898,147.104 293.724 C 147.315 293.549,147.487 293.499,147.487 293.612 C 147.487 293.726,147.614 293.692,147.769 293.537 C 147.924 293.382,148.207 293.315,148.397 293.388 C 148.588 293.461,148.744 293.420,148.744 293.296 C 148.744 293.173,148.996 293.053,149.305 293.029 C 149.614 293.006,149.907 292.868,149.955 292.723 C 150.003 292.578,150.137 292.517,150.252 292.589 C 150.368 292.660,150.661 292.519,150.904 292.276 C 151.147 292.033,151.379 291.891,151.419 291.960 C 151.459 292.029,151.721 291.889,152.002 291.648 C 152.283 291.408,152.513 291.269,152.513 291.341 C 152.513 291.509,157.113 288.431,157.315 288.128 C 157.399 288.001,157.512 287.923,157.566 287.955 C 157.619 287.988,158.144 287.769,158.732 287.469 C 162.592 285.500,164.863 285.821,169.059 288.933 C 170.198 289.777,171.237 290.401,171.368 290.319 C 171.500 290.238,171.608 290.263,171.609 290.375 C 171.609 290.486,172.429 290.606,173.430 290.640 C 175.784 290.721,179.079 291.188,179.943 291.564 C 180.174 291.665,180.513 291.770,180.696 291.798 C 180.880 291.826,181.171 291.937,181.344 292.045 C 181.517 292.152,181.658 292.160,181.658 292.061 C 181.658 291.963,181.884 292.087,182.161 292.337 C 182.437 292.587,182.663 292.700,182.663 292.588 C 182.663 292.476,182.874 292.575,183.131 292.808 C 183.389 293.041,183.838 293.278,184.130 293.334 C 184.422 293.390,184.906 293.665,185.206 293.944 C 185.577 294.290,186.082 294.448,186.783 294.439 C 188.090 294.423,193.153 295.214,193.970 295.562 C 194.177 295.651,194.573 295.764,194.849 295.814 C 195.126 295.864,195.521 295.974,195.729 296.059 C 196.270 296.282,201.054 297.787,201.505 297.876 C 201.714 297.918,201.913 297.974,201.947 298.002 C 201.982 298.030,202.123 298.081,202.261 298.116 C 202.399 298.150,202.569 298.207,202.638 298.241 C 202.707 298.276,202.877 298.332,203.015 298.367 C 203.153 298.401,203.323 298.458,203.392 298.492 C 203.461 298.527,203.631 298.584,203.769 298.618 C 203.907 298.653,204.077 298.709,204.146 298.744 C 204.215 298.778,204.356 298.830,204.460 298.860 C 204.563 298.889,204.818 298.983,205.025 299.068 C 206.377 299.624,211.586 300.662,213.246 300.707 C 213.553 300.715,214.495 300.973,215.338 301.281 C 216.757 301.798,217.017 301.818,218.800 301.546 C 221.396 301.151,222.619 301.179,224.049 301.665 C 224.710 301.889,225.364 302.098,225.503 302.129 C 225.641 302.160,225.980 302.287,226.256 302.412 C 227.401 302.927,241.452 302.633,246.482 301.988 C 247.519 301.855,249.045 301.689,249.874 301.619 C 251.315 301.497,257.979 300.818,259.296 300.659 C 259.642 300.617,260.375 300.383,260.924 300.138 C 261.766 299.764,264.276 299.391,267.714 299.128 C 268.128 299.097,268.580 299.037,268.719 298.995 C 268.857 298.953,269.083 298.892,269.221 298.860 C 269.359 298.828,269.557 298.775,269.661 298.741 C 269.764 298.708,269.962 298.653,270.101 298.618 C 270.239 298.584,270.380 298.532,270.415 298.505 C 270.449 298.477,270.669 298.417,270.902 298.372 C 271.930 298.174,273.278 297.643,273.707 297.267 C 273.964 297.043,274.246 296.887,274.335 296.921 C 274.579 297.013,276.208 296.455,276.596 296.147 C 276.782 295.998,277.065 295.852,277.224 295.821 C 277.383 295.791,278.407 295.532,279.500 295.245 C 280.593 294.958,282.063 294.717,282.766 294.709 C 285.014 294.682,286.370 294.352,286.915 293.697 C 287.193 293.364,287.424 293.167,287.429 293.260 C 287.433 293.354,288.109 293.167,288.929 292.845 C 289.750 292.524,290.880 292.183,291.441 292.088 C 292.001 291.994,292.523 291.813,292.601 291.687 C 292.679 291.561,292.963 291.457,293.231 291.457 C 293.499 291.457,293.719 291.305,293.719 291.119 C 293.719 290.933,293.939 290.527,294.208 290.216 C 294.477 289.906,294.731 289.576,294.773 289.483 C 294.860 289.289,297.531 287.318,297.732 287.299 C 298.195 287.256,299.188 286.816,299.560 286.489 C 299.802 286.277,300.000 286.191,300.000 286.298 C 300.000 286.406,300.170 286.353,300.377 286.181 C 300.584 286.009,300.754 285.952,300.754 286.055 C 300.754 286.158,300.941 286.087,301.169 285.898 C 301.398 285.708,301.624 285.581,301.672 285.616 C 301.720 285.650,301.787 285.670,301.822 285.659 C 301.856 285.649,302.054 285.605,302.261 285.563 C 303.304 285.348,306.446 284.321,306.721 284.105 C 306.894 283.969,307.035 283.942,307.035 284.045 C 307.035 284.148,307.205 284.092,307.412 283.920 C 307.619 283.748,307.789 283.691,307.789 283.794 C 307.789 283.897,307.959 283.840,308.166 283.668 C 308.373 283.496,308.543 283.443,308.543 283.551 C 308.543 283.658,308.781 283.531,309.072 283.268 C 309.362 283.004,309.645 282.817,309.700 282.852 C 309.754 282.886,309.827 282.906,309.862 282.895 C 309.896 282.885,310.139 282.836,310.402 282.786 C 310.665 282.737,310.956 282.573,311.049 282.423 C 311.142 282.272,311.484 282.098,311.809 282.035 C 312.134 281.973,312.489 281.777,312.598 281.601 C 314.851 277.946,318.336 276.602,322.025 277.967 C 322.600 278.180,323.121 278.303,323.183 278.241 C 323.245 278.179,323.438 278.301,323.613 278.512 C 323.788 278.722,324.044 278.894,324.182 278.894 C 324.506 278.894,328.141 281.194,328.141 281.399 C 328.141 281.485,328.594 282.059,329.149 282.674 C 330.529 284.207,330.568 284.260,330.771 284.899 C 330.889 285.272,331.081 285.413,331.336 285.315 C 331.548 285.234,331.852 285.275,332.011 285.407 C 332.170 285.539,333.059 285.708,333.987 285.783 C 336.279 285.967,336.985 286.169,337.492 286.786 C 337.730 287.075,338.109 287.502,338.336 287.735 C 338.778 288.190,341.205 289.442,341.908 289.577 C 342.144 289.623,342.393 289.682,342.462 289.709 C 342.531 289.736,342.662 289.748,342.752 289.736 C 342.843 289.724,343.054 289.881,343.223 290.083 C 343.391 290.286,343.646 290.452,343.790 290.452 C 344.938 290.452,346.491 292.059,347.002 293.775 C 347.291 294.747,347.660 295.701,347.822 295.895 C 347.983 296.090,348.242 296.391,348.396 296.566 C 348.551 296.740,348.756 297.132,348.853 297.436 C 348.950 297.741,349.125 297.990,349.243 297.990 C 349.361 297.990,349.532 298.329,349.623 298.744 C 349.714 299.158,349.893 299.497,350.020 299.497 C 350.147 299.497,350.251 300.289,350.251 301.256 C 350.251 302.261,350.144 303.015,350.000 303.015 C 349.862 303.015,349.749 303.354,349.749 303.769 C 349.749 304.183,349.862 304.523,350.000 304.523 C 350.138 304.523,350.251 304.745,350.251 305.016 C 350.251 305.288,350.585 305.825,350.993 306.210 C 351.401 306.595,352.133 307.291,352.620 307.757 L 353.506 308.604 353.575 312.888 L 353.643 317.172 354.771 317.739 C 355.391 318.051,355.946 318.259,356.004 318.201 C 356.062 318.142,356.261 318.221,356.447 318.375 C 356.632 318.529,356.784 318.570,356.784 318.467 C 356.784 318.364,356.954 318.421,357.161 318.593 C 357.368 318.765,357.538 318.822,357.538 318.719 C 357.538 318.616,357.707 318.672,357.915 318.844 C 358.122 319.016,358.291 319.073,358.291 318.970 C 358.291 318.867,358.456 318.919,358.657 319.086 C 358.859 319.253,359.133 319.322,359.268 319.239 C 359.403 319.155,359.583 319.200,359.668 319.339 C 359.754 319.477,360.073 319.592,360.377 319.594 C 360.681 319.596,361.834 319.663,362.940 319.744 C 364.045 319.824,366.333 319.753,368.024 319.584 C 370.483 319.340,371.174 319.342,371.478 319.595 C 371.688 319.769,371.859 319.832,371.859 319.736 C 371.859 319.640,372.143 319.785,372.490 320.058 C 372.853 320.343,373.334 320.499,373.621 320.424 C 373.899 320.351,374.121 320.417,374.121 320.574 C 374.121 320.728,374.290 320.854,374.497 320.854 C 374.705 320.854,374.874 320.732,374.874 320.582 C 374.874 320.432,375.016 320.360,375.188 320.420 C 375.361 320.481,375.785 320.417,376.131 320.278 C 376.476 320.140,378.907 319.997,381.533 319.962 C 386.396 319.897,387.083 319.846,387.630 319.508 C 387.800 319.403,388.048 319.384,388.181 319.466 C 388.610 319.731,390.194 318.493,390.504 317.651 C 390.669 317.202,390.895 316.834,391.005 316.834 C 391.116 316.834,391.206 316.043,391.206 315.075 C 391.206 314.108,391.108 313.317,390.987 313.317 C 390.565 313.317,390.151 308.030,390.435 306.277 C 390.917 303.310,390.754 301.805,389.847 300.853 C 389.696 300.694,389.403 300.314,389.196 300.007 C 388.844 299.487,388.294 298.775,387.693 298.063 C 387.363 297.672,387.360 296.231,387.688 296.231 C 388.277 296.231,387.862 295.164,386.872 294.134 C 386.285 293.522,385.634 292.769,385.427 292.460 C 385.220 292.151,384.932 291.771,384.788 291.615 C 384.644 291.459,384.376 290.964,384.193 290.515 C 384.009 290.066,383.759 289.698,383.638 289.698 C 383.516 289.698,383.417 289.546,383.417 289.360 C 383.417 289.174,383.219 288.784,382.977 288.493 C 382.358 287.747,381.845 287.065,381.407 286.402 C 380.720 285.363,378.018 282.791,376.814 282.030 C 375.883 281.442,375.629 281.137,375.629 280.608 C 375.628 280.185,375.302 279.590,374.749 279.003 C 374.265 278.490,373.869 277.925,373.869 277.747 C 373.869 277.568,373.229 277.236,372.445 277.009 C 370.321 276.391,366.234 273.308,365.131 271.491 C 364.722 270.817,360.143 268.090,359.420 268.090 C 359.334 268.090,358.646 267.808,357.891 267.462 C 357.136 267.117,356.463 266.834,356.397 266.834 C 356.024 266.834,353.751 265.132,353.629 264.761 C 353.549 264.519,353.378 264.322,353.249 264.322 C 353.121 264.322,353.015 264.161,353.015 263.965 C 353.015 263.738,352.132 263.318,350.565 262.802 C 346.872 261.585,344.986 260.773,341.444 258.874 C 339.390 257.774,336.227 255.074,335.176 253.524 C 334.969 253.218,334.601 252.735,334.359 252.451 C 333.813 251.808,333.813 251.714,334.359 251.226 C 334.601 251.009,334.969 250.574,335.176 250.260 C 335.383 249.945,335.689 249.545,335.854 249.371 C 336.020 249.198,336.230 248.759,336.321 248.397 C 336.412 248.035,336.578 247.739,336.689 247.739 C 336.800 247.739,336.967 247.286,337.060 246.734 C 337.154 246.181,337.326 245.729,337.444 245.729 C 337.561 245.729,337.734 245.220,337.827 244.598 C 337.920 243.976,338.084 243.467,338.192 243.467 C 338.299 243.467,338.461 243.072,338.551 242.588 C 338.642 242.104,338.812 241.709,338.929 241.709 C 339.046 241.709,339.219 241.399,339.314 241.020 C 339.409 240.641,339.592 240.267,339.719 240.188 C 339.847 240.109,340.091 239.458,340.262 238.741 C 340.432 238.024,340.657 237.437,340.763 237.437 C 340.868 237.437,340.955 237.211,340.955 236.935 C 340.955 236.658,340.865 236.432,340.756 236.432 C 339.900 236.432,339.951 231.151,340.810 230.821 C 341.376 230.604,341.293 230.116,340.574 229.433 C 340.230 229.108,339.950 228.684,339.950 228.491 C 339.950 228.298,339.846 228.141,339.718 228.141 C 339.591 228.141,339.407 227.773,339.310 227.324 C 339.213 226.875,339.014 226.432,338.868 226.339 C 338.491 226.099,338.529 219.778,338.909 219.652 C 339.067 219.599,339.196 219.285,339.196 218.954 C 339.196 218.308,340.132 217.704,342.085 217.088 C 342.638 216.913,343.260 216.623,343.467 216.443 C 343.675 216.263,343.929 216.108,344.033 216.098 C 344.136 216.088,344.249 216.072,344.284 216.061 C 344.318 216.051,344.516 216.008,344.724 215.966 C 344.931 215.924,345.553 215.690,346.106 215.446 C 346.658 215.202,347.234 214.974,347.385 214.941 C 348.306 214.737,350.950 213.676,351.319 213.362 C 351.561 213.156,351.759 213.075,351.759 213.183 C 351.759 213.290,351.928 213.237,352.136 213.065 C 352.343 212.893,352.513 212.840,352.513 212.948 C 352.513 213.055,352.739 212.939,353.015 212.688 C 353.291 212.438,353.518 212.322,353.518 212.429 C 353.518 212.536,353.687 212.484,353.894 212.312 C 354.102 212.140,354.271 212.068,354.271 212.153 C 354.271 212.382,356.337 211.540,356.847 211.103 C 357.089 210.896,357.286 210.814,357.286 210.921 C 357.286 211.029,357.456 210.976,357.663 210.804 C 357.871 210.632,358.040 210.556,358.040 210.636 C 358.040 210.782,360.101 209.877,360.804 209.422 C 361.011 209.288,361.237 209.171,361.307 209.162 C 361.715 209.110,362.739 208.692,363.028 208.460 C 363.215 208.310,363.535 208.163,363.741 208.133 C 363.946 208.103,364.302 207.908,364.532 207.700 C 364.762 207.492,365.035 207.315,365.139 207.305 C 365.568 207.267,367.584 206.212,367.857 205.883 C 368.019 205.687,368.312 205.528,368.507 205.528 C 368.702 205.528,369.112 205.367,369.418 205.170 C 370.009 204.791,372.617 204.203,373.541 204.241 C 373.844 204.253,374.620 203.861,375.265 203.368 C 375.910 202.876,376.667 202.429,376.947 202.375 C 377.412 202.285,378.308 201.665,378.662 201.188 C 378.741 201.081,379.063 200.944,379.378 200.883 C 379.693 200.822,380.120 200.632,380.327 200.460 C 380.534 200.288,380.868 200.124,381.068 200.094 C 381.268 200.065,381.607 199.895,381.822 199.717 C 382.036 199.539,382.380 199.369,382.585 199.339 C 382.791 199.309,383.187 199.078,383.466 198.826 C 383.744 198.573,383.989 198.408,384.009 198.459 C 384.043 198.546,386.867 197.227,387.688 196.741 C 387.896 196.618,388.574 196.273,389.196 195.973 C 391.184 195.014,392.526 194.216,393.963 193.137 C 394.734 192.559,396.012 191.694,396.803 191.216 C 398.683 190.079,398.731 189.565,397.111 187.902 C 396.437 187.212,394.686 186.439,391.206 185.296 C 388.494 184.406,386.649 183.442,385.606 182.371 C 385.251 182.007,384.772 181.910,383.327 181.910 C 381.451 181.910,379.631 181.490,377.638 180.599 C 377.016 180.321,376.034 179.881,375.456 179.621 C 372.071 178.099,366.948 178.055,365.314 179.534 C 365.092 179.735,364.804 179.899,364.674 179.899 C 364.544 179.899,364.022 180.182,363.514 180.528 C 361.453 181.928,359.173 182.901,357.112 183.259 C 356.670 183.336,355.897 183.799,355.393 184.289 C 354.631 185.029,351.737 186.935,351.376 186.935 C 351.318 186.935,350.674 187.206,349.945 187.537 C 349.215 187.869,347.883 188.441,346.985 188.809 C 346.087 189.177,344.995 189.641,344.560 189.840 C 344.125 190.038,343.701 190.201,343.618 190.201 C 343.447 190.201,340.582 191.579,339.824 192.026 C 339.548 192.188,338.869 192.602,338.317 192.945 C 337.739 193.303,336.711 193.640,335.899 193.737 C 335.017 193.844,334.183 194.132,333.679 194.504 C 332.071 195.693,328.108 194.596,325.373 192.205 C 324.041 191.040,321.544 188.541,320.980 187.807 C 317.922 183.832,314.328 181.317,310.803 180.685 C 308.917 180.346,307.733 179.974,306.657 179.382 C 303.157 177.457,301.869 176.877,298.452 175.685 C 296.470 174.994,293.153 173.951,291.080 173.366 C 289.008 172.781,286.011 171.928,284.422 171.472 C 281.929 170.756,281.015 170.622,277.764 170.499 C 275.691 170.421,271.903 170.171,269.347 169.944 C 261.284 169.228,254.365 169.361,248.367 170.349 C 244.108 171.051,242.626 171.184,238.646 171.224 C 235.769 171.252,233.822 171.374,233.621 171.538 C 232.235 172.664,222.419 174.623,218.162 174.623 C 217.250 174.623,215.982 175.056,213.693 176.148 C 211.932 176.988,204.713 178.628,197.739 179.772 C 193.938 180.395,189.020 181.201,186.809 181.562 C 177.409 183.097,171.255 184.802,168.837 186.539 L 167.569 187.450 164.913 185.642 C 163.452 184.647,161.548 183.118,160.682 182.243 L 159.108 180.653 157.060 180.653 C 155.092 180.653,154.949 180.613,153.361 179.610 C 151.346 178.338,150.213 177.915,148.778 177.900 C 147.876 177.891,147.412 177.686,146.153 176.740 C 141.052 172.905,134.661 171.130,125.251 170.932 C 109.307 170.597,97.047 174.052,91.128 180.549 C 90.050 181.732,89.346 182.265,88.440 182.587 C 87.571 182.896,87.172 183.189,87.070 183.592 C 86.831 184.545,85.419 185.932,83.289 187.306 C 80.833 188.891,79.897 189.951,77.566 193.788 C 75.242 197.616,73.862 199.354,72.422 200.267 C 70.505 201.483,69.763 201.333,66.195 199.004 C 65.088 198.281,63.798 197.668,63.046 197.507 C 61.489 197.173,60.941 196.895,59.771 195.850 C 59.065 195.219,58.478 194.971,57.133 194.737 C 55.204 194.401,54.339 193.940,52.136 192.075 C 51.307 191.373,49.724 190.133,48.618 189.319 C 46.312 187.622,46.300 187.609,44.994 185.427 C 44.245 184.175,43.687 183.589,42.603 182.915 C 32.547 176.659,29.895 168.196,30.771 145.153 L 30.960 140.180 31.498 140.529 C 31.793 140.721,32.298 141.037,32.620 141.230 C 32.942 141.424,34.235 142.629,35.493 143.907 C 36.751 145.185,37.933 146.231,38.119 146.231 C 38.306 146.231,38.525 146.405,38.606 146.617 C 38.793 147.105,40.837 148.526,41.048 148.315 C 41.135 148.228,41.206 148.296,41.206 148.465 C 41.206 148.635,41.309 148.709,41.436 148.631 C 41.562 148.553,41.704 148.600,41.750 148.735 C 41.796 148.870,42.117 149.032,42.462 149.095 C 42.808 149.157,43.090 149.232,43.090 149.260 C 43.090 149.363,44.627 149.527,45.603 149.528 C 47.147 149.530,47.466 149.484,47.616 149.241 C 47.692 149.118,47.921 149.081,48.124 149.158 C 48.326 149.236,48.492 149.175,48.492 149.022 C 48.492 148.869,48.577 148.771,48.681 148.803 C 48.999 148.904,50.503 148.195,50.503 147.945 C 50.503 147.815,50.616 147.779,50.756 147.865 C 50.895 147.951,51.076 147.845,51.159 147.629 C 51.242 147.413,51.465 147.236,51.654 147.236 C 51.844 147.236,52.184 146.954,52.410 146.608 C 52.636 146.263,52.956 145.980,53.120 145.980 C 53.471 145.980,55.025 144.433,55.025 144.084 C 55.025 143.952,55.421 143.528,55.905 143.143 C 56.388 142.757,56.784 142.303,56.784 142.135 C 56.784 141.967,57.010 141.688,57.286 141.516 C 57.563 141.343,57.789 141.060,57.789 140.887 C 57.789 140.715,58.015 140.432,58.291 140.259 C 58.568 140.087,58.794 139.804,58.794 139.631 C 58.794 139.458,59.020 139.176,59.296 139.003 C 59.573 138.830,59.799 138.565,59.799 138.413 C 59.799 138.262,60.082 137.915,60.427 137.644 C 60.773 137.372,61.055 137.037,61.055 136.900 C 61.055 136.763,61.394 136.366,61.809 136.017 C 62.224 135.668,62.563 135.251,62.563 135.091 C 62.563 134.930,62.959 134.483,63.442 134.097 C 63.926 133.711,64.322 133.311,64.322 133.207 C 64.322 133.103,64.871 132.423,65.543 131.697 C 66.214 130.970,66.921 130.076,67.113 129.711 C 67.305 129.346,67.711 128.776,68.016 128.444 C 68.916 127.465,70.808 123.393,71.346 121.281 C 74.123 110.375,73.652 74.332,70.616 65.396 C 67.887 57.366,54.133 41.530,48.166 39.548 C 43.269 37.921,37.108 41.670,28.722 51.377 C 27.492 52.800,27.281 52.616,24.754 47.914 C 22.462 43.650,20.527 40.867,19.014 39.660 L 18.186 38.999 16.819 40.138 M365.327 39.420 C 357.375 41.997,342.475 57.015,339.731 65.218 C 337.432 72.094,340.251 82.812,345.970 88.934 C 346.390 89.384,346.734 89.848,346.734 89.966 C 346.734 90.083,347.129 90.495,347.613 90.881 C 348.097 91.267,348.492 91.699,348.492 91.840 C 348.492 92.153,352.308 95.980,352.620 95.980 C 352.742 95.980,353.228 96.432,353.702 96.985 C 354.175 97.538,354.678 97.990,354.820 97.990 C 354.962 97.990,355.301 98.273,355.573 98.618 C 355.844 98.964,356.201 99.246,356.365 99.246 C 356.529 99.246,356.804 99.472,356.977 99.749 C 357.149 100.025,357.389 100.251,357.508 100.251 C 357.628 100.251,358.158 100.647,358.686 101.131 C 359.214 101.614,359.793 102.010,359.974 102.010 C 360.154 102.010,360.302 102.127,360.302 102.269 C 360.302 102.412,360.483 102.598,360.706 102.683 C 360.928 102.769,361.393 103.100,361.738 103.420 C 362.675 104.289,366.834 107.094,366.838 106.861 C 366.840 106.749,366.925 106.785,367.026 106.939 C 367.292 107.342,370.100 109.099,370.104 108.865 C 370.106 108.757,370.191 108.789,370.293 108.938 C 370.394 109.086,371.615 109.953,373.006 110.866 C 374.397 111.779,375.683 112.703,375.864 112.921 C 376.044 113.139,376.320 113.318,376.475 113.320 C 376.958 113.327,378.643 115.849,378.643 116.566 C 378.643 119.412,371.429 124.665,367.451 124.715 C 364.882 124.747,362.676 122.736,358.901 116.920 C 356.608 113.388,354.955 111.307,354.441 111.307 C 354.314 111.307,353.512 111.957,352.658 112.751 C 351.805 113.546,349.360 115.516,347.224 117.128 C 341.147 121.718,337.688 124.914,337.688 125.938 C 337.688 126.401,340.682 131.156,340.973 131.156 C 341.101 131.156,341.206 131.290,341.206 131.454 C 341.206 131.854,344.682 136.402,345.267 136.767 C 345.521 136.926,345.729 137.172,345.729 137.314 C 345.729 137.621,350.041 141.960,350.346 141.960 C 350.461 141.960,350.778 142.242,351.050 142.588 C 351.322 142.933,351.705 143.216,351.903 143.216 C 352.100 143.216,352.261 143.326,352.261 143.460 C 352.261 143.788,355.930 146.248,356.126 146.051 C 356.212 145.966,356.281 146.010,356.281 146.149 C 356.281 146.391,358.558 147.621,359.310 147.785 C 359.510 147.829,359.735 147.946,359.810 148.046 C 359.885 148.147,360.168 148.271,360.438 148.322 C 360.708 148.374,361.250 148.547,361.642 148.707 C 362.033 148.867,362.449 148.939,362.567 148.867 C 362.684 148.795,362.846 148.843,362.927 148.975 C 363.106 149.264,363.222 149.274,366.709 149.293 C 368.419 149.302,369.760 149.185,370.226 148.987 C 370.641 148.811,371.201 148.625,371.472 148.573 C 371.742 148.522,372.051 148.341,372.159 148.172 C 372.266 148.003,372.356 147.952,372.358 148.059 C 372.363 148.306,373.932 147.513,374.180 147.138 C 374.281 146.985,374.366 146.948,374.368 147.057 C 374.374 147.342,377.387 145.255,377.387 144.966 C 377.387 144.832,377.553 144.724,377.756 144.724 C 377.959 144.724,378.376 144.384,378.683 143.970 C 378.989 143.555,379.358 143.216,379.502 143.216 C 379.798 143.216,384.171 138.932,384.171 138.642 C 384.171 138.538,385.584 137.078,387.312 135.397 C 389.039 133.716,390.452 132.216,390.452 132.062 C 390.452 131.909,391.018 131.297,391.709 130.702 C 392.400 130.107,392.965 129.529,392.965 129.418 C 392.965 129.307,393.361 128.796,393.846 128.282 C 399.161 122.646,401.165 114.980,399.007 108.538 C 396.161 100.044,390.648 94.244,376.256 84.606 C 365.866 77.648,363.213 75.508,361.266 72.511 C 360.047 70.636,360.054 70.510,361.495 68.545 C 362.151 67.649,362.813 66.700,362.964 66.436 C 363.116 66.171,363.458 65.842,363.723 65.704 C 363.989 65.565,364.543 65.215,364.955 64.925 C 368.615 62.349,371.746 64.092,376.244 71.210 C 377.343 72.949,378.332 74.372,378.442 74.372 C 378.553 74.372,378.643 74.545,378.643 74.757 C 378.643 74.968,378.813 75.206,379.020 75.286 C 379.227 75.366,379.397 75.568,379.397 75.737 C 379.397 76.116,380.541 77.215,381.007 77.284 C 381.196 77.311,381.891 76.837,382.553 76.230 C 383.214 75.623,383.823 75.126,383.906 75.126 C 383.989 75.126,384.610 74.617,385.288 73.995 C 385.965 73.373,386.612 72.864,386.725 72.864 C 386.838 72.864,387.072 72.638,387.244 72.362 C 387.417 72.085,387.672 71.859,387.812 71.859 C 387.951 71.859,388.560 71.407,389.165 70.854 C 389.770 70.302,390.362 69.849,390.482 69.849 C 390.601 69.849,390.840 69.623,391.013 69.347 C 391.186 69.070,391.447 68.844,391.594 68.844 C 391.741 68.844,392.294 68.448,392.822 67.965 C 393.350 67.481,393.833 67.085,393.895 67.085 C 394.080 67.085,397.086 64.776,397.402 64.392 C 397.562 64.197,397.786 64.073,397.901 64.116 C 399.752 64.825,393.899 55.066,390.041 51.012 C 381.790 42.341,371.379 37.458,365.327 39.420 M296.106 39.388 C 290.817 39.976,280.013 48.451,272.450 57.945 C 266.406 65.532,265.126 71.996,265.397 93.570 C 265.680 116.134,266.990 124.980,270.633 128.927 C 271.169 129.508,271.608 130.052,271.608 130.136 C 271.608 130.365,275.231 133.920,275.464 133.920 C 275.575 133.920,276.233 134.541,276.928 135.302 C 277.623 136.062,278.283 136.683,278.395 136.683 C 278.507 136.683,279.985 138.097,281.678 139.824 C 283.372 141.552,284.889 142.965,285.050 142.965 C 285.211 142.965,285.706 143.417,286.151 143.970 C 286.595 144.523,287.095 144.975,287.263 144.975 C 287.430 144.975,287.709 145.201,287.881 145.477 C 288.054 145.754,288.352 145.980,288.543 145.980 C 288.734 145.980,288.947 146.121,289.015 146.294 C 289.150 146.635,291.598 148.163,292.211 148.289 C 292.418 148.332,292.649 148.449,292.724 148.549 C 292.800 148.649,293.082 148.765,293.353 148.807 C 293.623 148.849,293.986 148.972,294.158 149.080 C 294.331 149.188,294.472 149.199,294.472 149.105 C 294.472 149.010,294.614 149.048,294.786 149.188 C 295.304 149.607,299.284 149.655,299.686 149.247 C 299.720 149.212,299.862 149.155,300.000 149.121 C 300.138 149.086,300.280 149.035,300.314 149.008 C 300.349 148.980,300.655 148.907,300.994 148.844 C 301.334 148.782,301.685 148.611,301.776 148.465 C 301.867 148.318,301.984 148.225,302.038 148.257 C 302.251 148.384,303.266 147.942,303.266 147.722 C 303.266 147.593,303.353 147.516,303.459 147.550 C 303.734 147.640,306.281 145.972,306.281 145.702 C 306.281 145.579,306.435 145.477,306.623 145.477 C 306.812 145.477,307.512 144.969,308.180 144.347 C 308.847 143.725,309.477 143.216,309.579 143.216 C 309.682 143.216,310.645 142.255,311.720 141.080 C 312.795 139.906,313.810 138.945,313.975 138.945 C 314.141 138.945,315.175 137.984,316.274 136.809 C 317.373 135.634,318.367 134.673,318.482 134.673 C 318.816 134.673,320.101 133.354,320.101 133.010 C 320.101 132.838,320.438 132.457,320.851 132.163 C 327.195 127.646,329.675 115.474,329.323 90.578 C 328.992 67.153,327.669 63.269,316.100 51.759 C 306.423 42.132,301.092 38.834,296.106 39.388 M84.870 41.646 C 84.411 42.171,84.032 110.346,84.446 117.839 C 85.091 129.506,87.264 137.962,91.025 143.441 C 91.826 144.609,95.980 148.927,95.980 148.593 C 95.980 148.485,96.146 148.616,96.349 148.884 C 96.576 149.185,96.721 149.246,96.726 149.043 C 96.730 148.862,96.847 148.784,96.985 148.869 C 97.123 148.955,97.236 148.898,97.236 148.744 C 97.236 148.589,97.332 148.522,97.449 148.595 C 97.567 148.667,97.906 148.500,98.203 148.223 C 98.500 147.946,98.744 147.787,98.744 147.871 C 98.744 148.314,107.984 141.394,108.223 140.772 C 108.290 140.596,108.493 140.452,108.673 140.452 C 108.853 140.452,109.286 140.113,109.635 139.698 C 109.984 139.284,110.368 138.945,110.488 138.945 C 110.808 138.945,115.327 134.293,115.327 133.964 C 115.327 133.811,115.106 133.568,114.837 133.424 C 113.216 132.556,109.920 127.036,108.684 123.121 C 106.467 116.094,106.033 101.256,107.052 67.337 C 107.326 58.216,107.234 41.982,106.905 41.450 C 106.596 40.950,85.312 41.139,84.870 41.646 M298.234 62.581 C 298.852 62.861,299.721 63.368,300.165 63.706 C 300.608 64.045,301.057 64.322,301.161 64.322 C 301.433 64.322,302.513 65.373,302.513 65.638 C 302.513 65.762,302.783 66.223,303.113 66.662 C 307.212 72.123,308.926 90.094,307.270 110.264 C 306.491 119.763,300.236 128.430,295.796 126.165 C 292.248 124.355,288.734 119.006,288.079 114.419 C 285.946 99.466,286.427 75.409,288.964 70.173 C 289.694 68.667,293.814 63.911,294.716 63.533 C 294.928 63.444,295.375 63.077,295.710 62.716 C 296.438 61.931,296.764 61.914,298.234 62.581 M43.732 64.535 C 50.089 68.611,52.095 76.899,51.679 97.362 C 51.338 114.116,49.343 120.973,43.816 124.389 C 40.864 126.214,33.139 121.146,31.536 116.332 C 30.233 112.420,29.954 102.753,30.608 84.171 C 30.959 74.183,31.220 71.975,32.223 70.499 C 33.014 69.335,35.290 66.941,35.786 66.750 C 36.003 66.667,36.181 66.482,36.181 66.340 C 36.181 66.197,36.351 66.080,36.558 66.080 C 36.765 66.080,36.935 65.967,36.935 65.829 C 36.935 65.691,37.019 65.601,37.123 65.629 C 37.227 65.657,37.820 65.407,38.442 65.075 C 39.064 64.742,39.658 64.451,39.761 64.427 C 39.865 64.404,39.978 64.361,40.013 64.332 C 40.047 64.303,40.330 64.252,40.641 64.217 C 40.951 64.183,41.281 64.079,41.373 63.987 C 41.729 63.631,42.660 63.848,43.732 64.535 M273.869 175.192 C 274.215 175.254,275.063 175.393,275.754 175.499 C 276.445 175.606,277.204 175.727,277.440 175.770 C 277.916 175.855,279.561 176.545,280.151 176.906 C 280.676 177.227,281.711 177.672,282.161 177.770 C 282.368 177.814,282.566 177.874,282.601 177.902 C 282.635 177.929,282.776 177.981,282.915 178.015 C 283.053 178.050,283.251 178.109,283.354 178.148 C 283.458 178.186,283.656 178.239,283.794 178.266 C 283.932 178.293,284.215 178.385,284.422 178.470 C 284.629 178.556,285.251 178.675,285.804 178.735 C 286.357 178.794,287.714 179.022,288.819 179.241 C 289.925 179.459,291.112 179.688,291.457 179.750 C 291.803 179.812,292.114 179.885,292.148 179.912 C 292.183 179.940,292.324 179.991,292.462 180.025 C 292.601 180.060,292.770 180.116,292.839 180.151 C 292.908 180.185,293.050 180.237,293.153 180.267 C 293.257 180.296,293.511 180.386,293.719 180.467 C 294.323 180.704,295.980 181.200,296.346 181.254 C 296.532 181.281,296.836 181.425,297.022 181.573 C 297.209 181.722,297.984 182.036,298.744 182.273 C 300.648 182.865,300.609 182.854,300.790 182.820 C 300.879 182.803,301.162 182.959,301.418 183.166 C 302.119 183.732,302.965 184.171,303.358 184.171 C 303.550 184.171,303.848 184.340,304.020 184.548 C 304.192 184.755,304.496 184.925,304.696 184.925 C 304.895 184.925,305.435 185.211,305.894 185.562 C 306.354 185.913,306.980 186.248,307.286 186.307 C 307.917 186.428,309.548 187.600,309.548 187.932 C 309.548 188.052,309.972 188.410,310.490 188.728 C 311.008 189.046,312.054 189.960,312.814 190.759 C 314.667 192.706,314.781 192.846,315.117 193.584 C 315.277 193.934,315.493 194.221,315.598 194.221 C 315.703 194.221,315.864 194.560,315.955 194.975 C 316.046 195.389,316.215 195.729,316.332 195.729 C 316.448 195.729,316.617 196.068,316.709 196.482 C 316.800 196.897,316.978 197.236,317.105 197.236 C 317.500 197.236,317.360 198.238,316.897 198.727 C 315.855 199.830,313.879 200.542,307.718 202.037 C 307.195 202.164,306.573 202.379,306.336 202.515 C 302.296 204.837,295.955 204.538,294.773 201.970 C 294.731 201.880,294.477 201.551,294.208 201.241 C 293.939 200.931,293.719 200.525,293.719 200.338 C 293.719 200.152,293.607 200.000,293.470 200.000 C 293.334 200.000,293.150 199.548,293.061 198.995 C 292.973 198.442,292.802 197.990,292.681 197.990 C 292.561 197.990,292.462 197.553,292.462 197.018 C 292.462 194.733,287.763 192.844,277.656 191.067 C 271.386 189.965,266.763 188.959,265.383 188.397 C 264.991 188.238,263.512 188.142,261.921 188.173 C 259.807 188.215,258.643 188.103,257.050 187.707 C 254.398 187.047,254.053 187.053,251.075 187.812 C 248.088 188.573,247.385 188.584,244.165 187.928 C 240.081 187.096,227.648 188.155,224.372 189.614 C 222.267 190.551,221.182 191.105,220.477 191.603 C 219.013 192.637,217.708 192.965,215.057 192.965 C 212.856 192.965,212.210 193.074,209.974 193.822 C 208.565 194.293,206.677 194.806,205.779 194.961 C 204.881 195.116,203.580 195.513,202.889 195.844 C 200.592 196.944,199.389 197.425,197.487 198.004 C 191.828 199.730,186.877 201.701,185.553 202.758 C 185.415 202.868,184.793 203.036,184.171 203.130 C 180.592 203.675,173.292 206.082,168.719 208.224 C 166.757 209.143,166.039 209.624,165.445 210.416 C 164.186 212.098,162.692 212.893,157.870 214.445 C 155.407 215.238,152.092 216.484,150.503 217.214 C 147.022 218.813,146.066 219.092,144.078 219.094 C 142.125 219.096,140.764 219.503,135.678 221.607 C 129.474 224.174,128.914 224.313,124.246 224.461 C 121.959 224.533,118.903 224.811,117.155 225.107 C 114.239 225.599,114.011 225.605,112.633 225.212 C 111.512 224.894,109.985 224.794,105.940 224.774 L 100.699 224.749 99.982 223.890 C 98.588 222.220,98.517 219.751,99.741 215.452 C 100.544 212.634,101.920 211.871,105.641 212.183 C 108.700 212.439,109.799 212.457,109.799 212.249 C 109.799 212.145,109.884 212.078,109.987 212.100 C 110.091 212.122,110.375 212.053,110.619 211.946 C 110.862 211.840,111.428 211.824,111.875 211.911 C 112.322 211.998,112.830 212.086,113.003 212.106 C 113.175 212.127,113.317 212.210,113.317 212.291 C 113.317 212.371,113.599 212.437,113.945 212.437 C 114.290 212.437,114.573 212.347,114.573 212.238 C 114.573 212.128,114.714 212.063,114.887 212.093 C 115.060 212.124,115.681 212.011,116.268 211.844 C 116.889 211.666,118.123 211.588,119.220 211.657 C 120.430 211.732,121.106 211.681,121.106 211.513 C 121.106 211.370,121.275 211.318,121.482 211.397 C 121.690 211.477,121.859 211.433,121.859 211.299 C 121.859 211.165,121.944 211.078,122.048 211.105 C 122.391 211.196,123.367 210.774,123.367 210.536 C 123.367 210.407,123.452 210.329,123.555 210.363 C 123.833 210.453,125.628 209.294,125.628 209.025 C 125.628 208.898,125.798 208.794,126.005 208.794 C 126.212 208.794,126.383 208.709,126.385 208.606 C 126.391 208.196,128.347 207.547,129.774 207.481 C 130.603 207.443,131.338 207.356,131.407 207.286 C 131.532 207.162,133.813 206.057,134.041 206.012 C 134.106 205.998,134.756 205.823,135.484 205.622 C 136.213 205.420,137.035 205.195,137.312 205.121 C 137.791 204.993,138.733 204.820,139.824 204.660 C 140.101 204.620,140.327 204.558,140.327 204.523 C 140.327 204.487,140.553 204.422,140.829 204.377 C 141.740 204.230,142.082 204.134,142.399 203.935 C 142.572 203.827,142.819 203.804,142.947 203.884 C 143.076 203.963,143.254 203.912,143.342 203.769 C 143.430 203.626,143.607 203.574,143.736 203.654 C 143.865 203.733,143.970 203.672,143.970 203.518 C 143.970 203.363,144.083 203.307,144.221 203.392 C 144.359 203.477,144.472 203.409,144.472 203.239 C 144.472 203.070,144.545 203.004,144.633 203.092 C 144.721 203.180,145.126 202.973,145.532 202.631 C 145.997 202.240,146.582 202.010,147.115 202.010 C 147.580 202.010,148.033 201.892,148.122 201.749 C 148.211 201.605,148.500 201.556,148.765 201.640 C 149.045 201.729,149.246 201.674,149.246 201.510 C 149.246 201.354,149.359 201.297,149.497 201.382 C 149.636 201.467,149.749 201.417,149.749 201.271 C 149.749 201.125,149.834 201.025,149.937 201.049 C 150.250 201.122,151.508 200.438,151.508 200.196 C 151.508 200.072,151.621 200.040,151.759 200.126 C 151.897 200.211,152.010 200.161,152.010 200.015 C 152.010 199.868,152.180 199.749,152.387 199.749 C 152.594 199.749,152.764 199.629,152.764 199.483 C 152.764 199.336,152.867 199.280,152.994 199.359 C 153.120 199.437,153.261 199.415,153.308 199.311 C 153.451 198.987,158.597 196.631,159.081 196.667 C 159.332 196.686,159.604 196.594,159.686 196.462 C 159.767 196.331,159.939 196.288,160.068 196.368 C 160.196 196.447,160.302 196.386,160.302 196.231 C 160.302 196.077,160.415 196.020,160.553 196.106 C 160.691 196.191,160.804 196.134,160.804 195.980 C 160.804 195.825,160.900 195.758,161.017 195.831 C 161.134 195.903,161.558 195.612,161.959 195.185 C 162.678 194.418,164.472 193.445,165.452 193.290 C 165.729 193.246,166.124 193.137,166.332 193.046 C 166.539 192.956,166.784 192.873,166.876 192.861 C 166.968 192.849,167.121 192.762,167.215 192.668 C 167.309 192.574,167.544 192.558,167.738 192.632 C 167.932 192.706,168.090 192.635,168.090 192.474 C 168.090 192.313,168.196 192.246,168.324 192.326 C 168.453 192.405,168.630 192.354,168.719 192.211 C 168.807 192.068,168.984 192.017,169.113 192.096 C 169.241 192.176,169.347 192.102,169.347 191.933 C 169.347 191.763,169.418 191.696,169.504 191.782 C 169.647 191.925,171.811 190.600,172.111 190.186 C 172.261 189.979,173.656 189.656,174.874 189.547 C 176.967 189.360,178.713 189.134,180.528 188.816 C 180.942 188.743,181.898 188.622,182.651 188.546 C 183.405 188.471,184.117 188.350,184.235 188.277 C 184.353 188.204,184.923 188.095,185.503 188.034 C 186.083 187.973,186.727 187.850,186.935 187.760 C 187.142 187.671,187.481 187.570,187.688 187.536 C 187.896 187.501,188.348 187.402,188.693 187.316 C 189.389 187.142,189.900 187.039,191.206 186.810 C 191.690 186.726,192.481 186.526,192.965 186.366 C 193.448 186.207,193.929 186.058,194.033 186.035 C 194.136 186.011,194.278 185.978,194.347 185.961 C 194.416 185.944,194.527 185.925,194.594 185.920 C 194.662 185.914,195.199 185.735,195.788 185.521 C 196.377 185.307,197.029 185.094,197.236 185.048 C 197.443 185.001,197.641 184.954,197.676 184.944 C 197.710 184.933,197.823 184.915,197.927 184.903 C 198.031 184.892,198.257 184.765,198.430 184.621 C 198.602 184.478,198.744 184.445,198.744 184.548 C 198.744 184.651,198.885 184.621,199.058 184.482 C 199.231 184.343,199.739 184.150,200.188 184.054 C 200.638 183.958,201.005 183.769,201.005 183.634 C 201.005 183.498,201.110 183.452,201.239 183.532 C 201.368 183.611,201.544 183.562,201.631 183.421 C 201.717 183.281,201.958 183.166,202.164 183.166 C 202.371 183.166,203.021 182.947,203.610 182.679 C 204.483 182.281,205.328 182.174,205.716 182.412 C 205.925 182.541,207.761 182.459,208.002 182.310 C 208.161 182.212,208.417 182.209,208.571 182.304 C 208.724 182.399,208.934 182.341,209.036 182.176 C 209.138 182.011,209.436 181.836,209.699 181.786 C 209.961 181.737,210.204 181.674,210.239 181.646 C 210.273 181.618,210.386 181.572,210.490 181.542 C 210.594 181.513,210.848 181.420,211.055 181.336 C 212.375 180.798,216.298 179.908,217.965 179.769 C 218.379 179.734,219.510 179.632,220.477 179.542 C 221.445 179.452,223.028 179.315,223.995 179.237 C 227.864 178.926,229.443 178.744,232.045 178.306 C 232.465 178.236,234.104 177.752,235.688 177.231 C 237.272 176.711,238.624 176.277,238.693 176.267 C 238.763 176.257,238.937 176.173,239.082 176.081 C 239.227 175.988,240.244 175.963,241.343 176.024 C 245.282 176.242,246.317 176.171,248.095 175.562 L 249.834 174.967 261.537 175.023 C 267.975 175.053,273.524 175.129,273.869 175.192 M122.487 175.767 C 123.226 175.870,124.766 175.981,129.235 176.251 C 132.404 176.443,134.680 177.140,135.019 178.024 C 135.103 178.244,135.286 178.353,135.425 178.267 C 135.565 178.181,135.678 178.227,135.678 178.369 C 135.678 178.511,135.837 178.567,136.030 178.493 C 136.223 178.418,136.456 178.478,136.547 178.626 C 136.638 178.774,137.269 178.894,137.949 178.894 C 139.197 178.894,141.175 179.512,141.516 180.008 C 141.629 180.171,141.704 180.178,141.709 180.025 C 141.713 179.882,141.796 179.895,141.901 180.054 C 142.168 180.460,144.130 181.414,144.316 181.229 C 144.402 181.143,144.472 181.204,144.472 181.365 C 144.472 181.526,144.557 181.645,144.661 181.629 C 144.764 181.612,144.934 181.626,145.038 181.660 C 145.141 181.694,145.339 181.749,145.477 181.784 C 145.616 181.818,145.757 181.870,145.791 181.897 C 145.848 181.943,146.059 182.000,147.048 182.236 C 147.220 182.277,147.616 182.450,147.927 182.621 C 148.238 182.792,148.492 182.858,148.492 182.767 C 148.492 182.676,148.679 182.757,148.908 182.947 C 149.136 183.136,149.361 183.268,149.406 183.240 C 149.451 183.211,149.891 183.356,150.383 183.562 C 150.876 183.767,151.379 183.874,151.501 183.798 C 151.624 183.722,151.796 183.777,151.884 183.920 C 151.973 184.062,152.150 184.114,152.279 184.034 C 152.407 183.955,152.654 183.979,152.827 184.087 C 152.999 184.196,153.480 184.307,153.894 184.335 C 155.772 184.462,158.794 187.605,158.794 189.431 C 158.794 192.642,149.597 196.734,142.380 196.734 L 139.878 196.734 137.339 195.007 C 133.152 192.161,128.458 190.062,123.544 188.838 C 120.388 188.052,117.726 189.251,110.427 194.746 C 108.631 196.098,106.486 197.582,105.662 198.043 C 104.393 198.752,104.020 199.134,103.231 200.532 C 102.719 201.439,101.042 203.924,99.505 206.053 C 95.070 212.197,93.525 215.886,93.834 219.591 C 93.983 221.371,93.945 221.579,93.187 223.116 C 92.418 224.675,92.374 224.926,92.220 228.643 C 92.094 231.676,91.959 232.726,91.608 233.389 C 91.176 234.204,91.176 234.331,91.594 236.325 C 92.140 238.928,91.997 242.169,91.236 244.402 C 90.065 247.838,90.960 255.238,93.244 261.005 C 94.203 263.429,96.877 268.634,97.513 269.316 C 97.775 269.598,97.990 269.946,97.990 270.090 C 97.990 270.234,98.103 270.352,98.241 270.352 C 98.379 270.352,98.492 270.521,98.492 270.729 C 98.492 270.936,98.606 271.106,98.744 271.106 C 98.882 271.106,98.995 271.275,98.995 271.482 C 98.995 271.690,99.085 271.859,99.196 271.859 C 99.306 271.859,99.540 272.255,99.715 272.739 C 99.889 273.222,100.138 273.618,100.268 273.618 C 100.397 273.618,100.503 273.788,100.503 273.995 C 100.503 274.202,100.616 274.372,100.754 274.372 C 100.892 274.372,101.005 274.504,101.005 274.666 C 101.005 275.153,101.781 275.855,102.159 275.710 C 102.354 275.635,102.513 275.706,102.513 275.867 C 102.513 276.028,102.609 276.101,102.727 276.028 C 103.061 275.821,105.476 276.786,106.411 277.498 C 106.874 277.852,107.329 278.141,107.422 278.141 C 107.515 278.141,107.813 278.423,108.085 278.769 C 108.357 279.114,108.728 279.397,108.911 279.397 C 109.093 279.397,109.308 279.567,109.387 279.774 C 109.467 279.981,109.705 280.151,109.917 280.151 C 110.128 280.151,110.302 280.270,110.302 280.417 C 110.302 280.563,110.415 280.613,110.553 280.528 C 110.691 280.442,110.804 280.489,110.804 280.631 C 110.804 280.773,110.974 280.824,111.181 280.744 C 111.388 280.665,111.558 280.696,111.558 280.815 C 111.558 280.933,112.208 280.992,113.002 280.946 C 115.521 280.800,118.692 280.818,119.472 280.982 C 121.383 281.385,122.071 281.470,123.241 281.445 C 124.258 281.424,125.448 281.300,125.817 281.177 C 125.851 281.165,125.919 281.184,125.966 281.219 C 126.014 281.253,126.240 281.126,126.469 280.937 C 126.697 280.747,126.884 280.666,126.884 280.757 C 126.884 280.848,127.139 280.781,127.450 280.609 C 127.761 280.436,128.100 280.319,128.204 280.349 C 128.307 280.378,128.392 280.289,128.392 280.151 C 128.392 280.013,128.477 279.922,128.580 279.949 C 128.923 280.040,129.899 279.619,129.899 279.380 C 129.899 279.251,129.984 279.165,130.088 279.189 C 130.192 279.213,131.618 278.567,133.258 277.754 C 136.664 276.066,138.541 275.823,141.080 276.743 C 141.771 276.994,142.450 277.218,142.588 277.242 C 142.726 277.266,143.094 277.425,143.405 277.596 C 143.715 277.767,143.970 277.833,143.970 277.742 C 143.970 277.651,144.139 277.717,144.347 277.889 C 144.554 278.061,144.724 278.118,144.724 278.015 C 144.724 277.912,144.893 277.969,145.101 278.141 C 145.308 278.313,145.477 278.369,145.477 278.266 C 145.477 278.163,145.647 278.220,145.854 278.392 C 146.062 278.564,146.231 278.621,146.231 278.518 C 146.231 278.415,146.401 278.471,146.608 278.643 C 146.815 278.815,146.985 278.872,146.985 278.769 C 146.985 278.666,147.155 278.722,147.362 278.894 C 147.569 279.067,147.739 279.123,147.739 279.020 C 147.739 278.917,147.889 278.958,148.072 279.110 C 148.256 279.262,148.626 279.420,148.894 279.461 C 153.144 280.110,152.135 286.386,147.774 286.427 C 147.422 286.430,146.648 286.920,145.870 287.630 C 142.691 290.536,136.448 292.536,128.700 293.131 C 126.931 293.267,126.452 293.401,125.816 293.936 C 125.119 294.522,124.883 294.572,123.109 294.505 C 121.537 294.445,120.970 294.531,120.141 294.954 C 118.901 295.587,118.026 295.616,117.080 295.057 C 116.412 294.663,116.220 294.667,113.901 295.118 C 106.778 296.505,102.407 295.520,91.398 290.048 C 88.257 288.486,85.204 287.068,84.615 286.897 C 82.920 286.405,80.651 283.900,78.266 279.888 C 77.161 278.029,75.431 275.523,74.423 274.319 C 73.325 273.008,72.242 271.377,71.722 270.253 C 70.117 266.779,69.838 264.984,69.084 253.266 C 68.937 250.986,68.658 248.329,68.463 247.362 C 67.963 244.879,68.008 242.685,68.616 239.938 C 69.188 237.349,69.155 235.065,68.531 234.099 C 68.227 233.630,68.223 233.425,68.505 232.789 C 68.744 232.248,68.797 231.363,68.693 229.648 C 68.555 227.391,68.589 227.156,69.324 225.335 C 69.919 223.860,70.101 223.021,70.101 221.752 C 70.101 220.269,70.217 219.879,71.220 218.025 C 73.205 214.353,74.339 211.199,74.889 207.824 C 75.125 206.376,75.632 205.025,75.941 205.025 C 76.045 205.025,76.131 204.856,76.131 204.648 C 76.131 204.441,76.230 204.271,76.351 204.271 C 76.473 204.271,76.721 203.904,76.902 203.455 C 77.084 203.006,77.304 202.582,77.392 202.513 C 77.479 202.443,78.051 201.434,78.662 200.269 C 79.274 199.105,80.085 197.808,80.465 197.387 C 80.845 196.966,81.156 196.522,81.156 196.400 C 81.156 196.278,81.438 195.956,81.784 195.684 C 82.129 195.412,82.412 195.040,82.412 194.858 C 82.412 194.675,82.582 194.461,82.789 194.382 C 82.996 194.302,83.166 194.091,83.166 193.913 C 83.166 193.734,83.392 193.447,83.668 193.274 C 83.945 193.102,84.171 192.819,84.171 192.646 C 84.171 192.473,84.397 192.191,84.673 192.018 C 84.950 191.846,85.176 191.581,85.176 191.431 C 85.176 191.280,85.741 190.649,86.432 190.028 C 87.123 189.406,87.688 188.773,87.688 188.619 C 87.688 188.237,89.223 186.683,89.601 186.683 C 89.769 186.683,90.355 186.175,90.902 185.553 C 91.450 184.931,92.024 184.422,92.178 184.422 C 92.332 184.422,92.599 184.196,92.772 183.920 C 92.944 183.643,93.222 183.417,93.390 183.417 C 93.557 183.417,93.784 183.276,93.895 183.103 C 94.005 182.930,94.404 182.629,94.782 182.434 C 95.160 182.240,95.670 181.901,95.917 181.681 C 96.284 181.353,100.572 179.114,101.005 179.024 C 102.252 178.763,103.311 178.574,104.020 178.485 C 104.504 178.424,105.295 178.324,105.779 178.263 C 106.263 178.202,106.941 178.096,107.286 178.028 C 107.632 177.959,108.197 177.850,108.543 177.784 C 109.342 177.632,110.256 177.449,111.055 177.281 C 111.914 177.101,112.775 176.943,113.819 176.773 C 114.303 176.694,114.925 176.580,115.201 176.519 C 115.477 176.458,115.986 176.355,116.332 176.289 C 116.677 176.224,117.242 176.099,117.588 176.012 C 117.933 175.926,118.606 175.800,119.083 175.733 C 119.560 175.666,120.006 175.555,120.075 175.487 C 120.143 175.418,120.544 175.429,120.966 175.512 C 121.388 175.594,122.073 175.708,122.487 175.767 M37.661 185.490 C 38.347 186.077,38.916 186.699,38.926 186.872 C 38.936 187.045,39.046 187.186,39.169 187.186 C 39.292 187.186,39.461 187.458,39.545 187.791 C 39.628 188.124,40.997 189.734,42.587 191.369 C 44.177 193.003,45.477 194.414,45.477 194.503 C 45.477 194.592,45.732 194.748,46.043 194.849 C 46.813 195.100,46.965 195.153,47.111 195.226 C 47.180 195.261,47.321 195.304,47.425 195.322 C 47.596 195.352,49.226 196.274,51.123 197.415 C 51.534 197.662,52.079 198.119,52.335 198.430 C 52.591 198.741,52.919 198.995,53.064 198.995 C 53.210 198.995,53.776 199.504,54.324 200.126 C 54.871 200.747,55.458 201.256,55.627 201.256 C 55.797 201.256,56.186 201.595,56.493 202.010 C 56.799 202.425,57.154 202.764,57.281 202.764 C 57.408 202.764,57.818 203.048,58.192 203.394 C 58.567 203.741,58.925 203.973,58.989 203.909 C 59.053 203.845,59.270 203.958,59.472 204.160 C 59.674 204.362,59.943 204.463,60.071 204.384 C 60.198 204.306,60.302 204.361,60.302 204.508 C 60.302 204.654,60.386 204.750,60.490 204.720 C 60.594 204.691,60.933 204.808,61.244 204.981 C 61.555 205.153,61.809 205.227,61.809 205.145 C 61.809 205.063,61.950 205.085,62.123 205.195 C 62.296 205.305,62.522 205.410,62.626 205.430 C 62.729 205.449,62.871 205.493,62.940 205.528 C 63.009 205.562,63.178 205.619,63.317 205.653 C 63.455 205.688,63.624 205.744,63.693 205.779 C 63.763 205.813,63.904 205.864,64.008 205.891 C 64.111 205.917,64.860 206.242,65.672 206.613 C 66.484 206.983,67.247 207.286,67.368 207.286 C 67.489 207.286,67.588 207.399,67.588 207.538 C 67.588 207.676,67.729 207.797,67.902 207.807 C 68.842 207.861,69.665 209.519,69.360 210.746 C 68.715 213.344,65.997 217.839,65.071 217.839 C 64.384 217.839,61.336 216.719,58.360 215.372 C 54.994 213.849,52.182 212.930,50.126 212.682 C 48.761 212.517,48.487 212.376,47.236 211.197 C 44.759 208.862,40.566 206.420,35.977 204.641 C 33.997 203.873,33.710 203.586,32.465 201.131 C 31.147 198.530,30.006 197.176,27.585 195.342 C 25.706 193.918,25.264 193.460,25.315 192.994 C 25.386 192.352,27.059 190.452,27.554 190.452 C 27.727 190.452,28.184 190.057,28.570 189.573 C 28.956 189.089,29.412 188.693,29.583 188.693 C 29.755 188.693,30.036 188.467,30.209 188.191 C 30.382 187.915,30.664 187.688,30.837 187.688 C 31.010 187.688,31.293 187.462,31.465 187.186 C 31.638 186.910,31.925 186.683,32.104 186.683 C 32.282 186.683,32.493 186.514,32.572 186.307 C 32.652 186.099,32.814 185.930,32.933 185.930 C 33.051 185.930,33.683 185.590,34.337 185.176 C 35.888 184.192,36.177 184.220,37.661 185.490 M371.231 185.298 C 371.508 185.346,371.734 185.409,371.734 185.438 C 371.734 185.467,371.960 185.525,372.236 185.567 C 372.513 185.609,373.021 185.716,373.367 185.806 C 373.712 185.896,374.221 186.011,374.497 186.062 C 375.424 186.232,375.999 186.392,377.073 186.779 C 377.660 186.990,378.141 187.105,378.141 187.034 C 378.141 186.963,378.282 186.993,378.455 187.101 C 378.628 187.209,378.895 187.317,379.048 187.340 C 379.202 187.363,379.541 187.562,379.802 187.782 C 380.063 188.002,380.503 188.345,380.779 188.545 L 381.281 188.910 380.779 189.396 C 380.503 189.663,380.107 190.137,379.899 190.449 C 379.692 190.761,379.381 191.164,379.209 191.344 C 379.036 191.525,378.894 191.776,378.894 191.903 C 378.894 192.030,378.668 192.395,378.392 192.714 C 378.116 193.032,377.889 193.422,377.889 193.580 C 377.889 194.786,374.346 197.828,372.462 198.240 C 370.016 198.774,368.684 199.340,366.744 200.668 C 364.628 202.117,363.011 202.926,360.804 203.640 C 360.044 203.885,359.309 204.170,359.171 204.271 C 359.033 204.373,358.298 204.656,357.538 204.899 C 356.778 205.143,356.043 205.422,355.905 205.518 C 355.766 205.614,355.088 205.897,354.397 206.148 C 353.706 206.398,353.009 206.707,352.847 206.833 C 349.879 209.155,341.714 212.184,337.060 212.688 C 332.262 213.208,331.113 213.470,328.695 214.595 C 325.797 215.944,324.331 216.331,322.128 216.333 C 319.729 216.335,318.870 216.577,315.452 218.214 C 311.335 220.187,309.140 220.602,300.126 221.108 C 293.442 221.483,290.349 221.956,284.933 223.428 C 283.339 223.861,281.696 224.212,281.281 224.209 C 265.204 224.071,251.445 223.254,245.542 222.086 C 243.112 221.606,242.851 221.599,240.893 221.964 C 234.760 223.108,228.858 223.058,214.573 221.740 C 209.529 221.275,204.335 220.818,203.030 220.726 C 201.092 220.589,199.943 220.312,196.749 219.215 C 191.834 217.527,188.603 216.831,184.925 216.668 C 181.842 216.531,180.821 216.184,177.261 214.061 C 176.570 213.649,175.638 213.142,175.188 212.934 C 174.156 212.456,174.163 212.230,175.233 211.569 C 175.707 211.276,176.133 210.921,176.180 210.781 C 176.227 210.640,176.489 210.484,176.763 210.433 C 177.037 210.382,177.290 210.331,177.324 210.321 C 177.359 210.310,177.426 210.330,177.474 210.364 C 177.522 210.399,177.720 210.299,177.914 210.142 C 178.108 209.985,178.626 209.780,179.066 209.686 C 179.505 209.592,179.999 209.353,180.164 209.155 C 180.329 208.956,180.648 208.790,180.872 208.786 C 181.396 208.776,182.020 208.289,182.231 207.726 C 182.322 207.484,182.521 207.286,182.673 207.286 C 182.825 207.286,183.452 206.940,184.067 206.518 C 186.243 205.020,192.014 204.257,194.975 205.074 C 195.557 205.235,197.318 205.800,197.739 205.962 C 197.946 206.041,198.274 206.138,198.467 206.177 C 198.661 206.216,198.887 206.348,198.970 206.470 C 199.053 206.592,199.686 207.067,200.377 207.526 C 201.068 207.986,201.778 208.542,201.956 208.763 C 202.133 208.984,202.642 209.178,203.086 209.195 C 204.708 209.255,206.924 209.559,208.407 209.925 C 209.242 210.130,210.207 210.347,210.553 210.407 C 210.898 210.467,211.209 210.524,211.244 210.534 C 211.278 210.544,211.351 210.524,211.406 210.490 C 211.460 210.455,211.736 210.636,212.018 210.891 C 212.300 211.147,212.651 211.281,212.798 211.191 C 212.945 211.100,213.065 211.133,213.065 211.264 C 213.065 211.544,214.755 211.424,217.488 210.948 C 218.813 210.718,220.825 210.645,223.846 210.719 C 228.182 210.824,229.007 210.874,231.030 211.150 C 233.639 211.505,233.725 211.522,235.930 212.083 C 237.383 212.452,238.184 212.488,246.465 212.545 C 250.255 212.572,253.550 212.697,253.786 212.823 C 254.022 212.950,254.595 213.079,255.060 213.110 C 255.524 213.141,255.988 213.285,256.089 213.430 C 256.208 213.599,256.275 213.575,256.278 213.362 C 256.280 213.156,256.455 213.087,256.742 213.178 C 256.995 213.258,257.702 213.147,258.312 212.932 C 259.245 212.602,260.766 212.547,267.839 212.587 C 275.880 212.633,277.480 212.575,278.894 212.191 C 279.240 212.097,279.692 212.014,279.899 212.006 C 280.107 211.998,280.420 211.878,280.597 211.739 C 280.773 211.600,280.988 211.558,281.076 211.645 C 281.164 211.733,281.387 211.679,281.572 211.525 C 281.758 211.371,281.910 211.329,281.910 211.432 C 281.910 211.535,282.079 211.479,282.286 211.307 C 282.494 211.135,282.663 211.078,282.663 211.181 C 282.663 211.284,282.833 211.227,283.040 211.055 C 283.247 210.883,283.417 210.814,283.417 210.902 C 283.417 210.990,283.813 210.897,284.296 210.695 C 284.780 210.492,285.176 210.385,285.176 210.455 C 285.176 210.525,285.317 210.494,285.490 210.386 C 285.663 210.278,285.974 210.165,286.181 210.134 C 286.388 210.103,287.462 209.900,288.568 209.683 C 290.090 209.383,291.951 209.299,296.231 209.334 C 301.796 209.380,302.327 209.351,302.952 208.961 C 303.125 208.853,303.392 208.842,303.546 208.937 C 303.699 209.032,303.909 208.975,304.011 208.809 C 304.113 208.644,304.411 208.469,304.673 208.420 C 304.936 208.370,305.179 208.307,305.214 208.279 C 305.248 208.251,305.361 208.209,305.465 208.185 C 306.216 208.010,306.976 207.671,307.349 207.343 C 307.591 207.131,307.789 207.034,307.789 207.128 C 307.789 207.222,308.110 207.133,308.503 206.930 C 309.454 206.438,312.305 205.735,314.698 205.402 C 315.113 205.344,315.848 205.230,316.332 205.148 C 317.494 204.952,318.630 204.784,319.095 204.741 C 319.303 204.721,319.609 204.598,319.775 204.467 C 319.942 204.335,320.189 204.296,320.323 204.379 C 320.458 204.463,320.644 204.408,320.737 204.258 C 320.829 204.108,321.052 204.042,321.232 204.111 C 321.412 204.180,321.636 204.160,321.730 204.066 C 321.824 203.971,322.005 203.880,322.131 203.863 C 322.258 203.846,322.418 203.803,322.487 203.769 C 322.557 203.734,322.698 203.686,322.802 203.662 C 323.484 203.504,324.268 203.165,324.390 202.975 C 324.470 202.853,324.752 202.708,325.018 202.655 C 325.799 202.497,326.825 202.059,326.973 201.819 C 327.049 201.696,327.568 201.445,328.128 201.260 C 328.688 201.076,329.146 200.842,329.146 200.742 C 329.146 200.532,330.462 200.256,332.272 200.087 C 332.954 200.023,333.631 199.898,333.775 199.809 C 333.919 199.720,334.208 199.623,334.418 199.595 C 334.627 199.566,335.082 199.468,335.427 199.377 C 335.773 199.285,336.281 199.176,336.558 199.135 C 336.834 199.093,337.117 199.027,337.186 198.989 C 337.255 198.950,337.425 198.892,337.563 198.860 C 337.701 198.828,337.871 198.780,337.940 198.753 C 338.318 198.608,339.126 198.457,339.510 198.459 C 339.752 198.460,339.950 198.355,339.950 198.226 C 339.950 198.096,340.035 198.003,340.138 198.020 C 340.242 198.036,340.411 198.022,340.515 197.988 C 340.619 197.955,340.817 197.899,340.955 197.864 C 341.093 197.830,341.263 197.773,341.332 197.739 C 341.401 197.704,341.570 197.648,341.709 197.613 C 341.847 197.579,342.016 197.522,342.085 197.487 C 342.155 197.453,342.324 197.396,342.462 197.362 C 342.601 197.327,342.770 197.271,342.839 197.236 C 342.908 197.202,343.050 197.154,343.153 197.131 C 344.010 196.940,345.432 196.349,345.791 196.035 C 346.033 195.824,346.231 195.739,346.231 195.846 C 346.231 195.954,346.412 195.891,346.633 195.708 C 346.855 195.524,347.166 195.352,347.324 195.325 C 347.681 195.265,348.740 194.805,349.246 194.491 C 349.454 194.363,349.793 194.193,350.000 194.115 C 350.207 194.037,350.603 193.841,350.879 193.681 C 351.877 193.100,352.146 192.959,352.759 192.697 C 353.101 192.551,353.449 192.322,353.531 192.189 C 353.613 192.057,353.942 191.898,354.261 191.836 C 354.581 191.775,355.034 191.551,355.268 191.339 C 355.502 191.128,355.868 190.955,356.082 190.955 C 356.296 190.955,356.612 190.785,356.784 190.578 C 356.956 190.371,357.288 190.201,357.521 190.201 C 357.754 190.201,358.188 189.975,358.485 189.698 C 358.781 189.422,359.185 189.196,359.381 189.196 C 359.577 189.196,359.877 189.028,360.048 188.822 C 360.219 188.616,360.450 188.504,360.561 188.573 C 360.672 188.642,360.940 188.521,361.156 188.305 C 361.372 188.089,361.749 187.872,361.993 187.823 C 362.794 187.661,363.767 187.222,363.938 186.946 C 364.030 186.797,364.210 186.740,364.339 186.820 C 364.468 186.899,364.573 186.845,364.573 186.698 C 364.573 186.552,364.776 186.432,365.025 186.432 C 365.274 186.432,365.613 186.296,365.779 186.131 C 365.945 185.965,366.080 185.922,366.080 186.036 C 366.080 186.149,366.250 186.102,366.457 185.930 C 366.665 185.758,366.834 185.676,366.834 185.749 C 366.834 185.822,367.371 185.670,368.028 185.412 C 368.730 185.136,369.531 184.998,369.975 185.077 C 370.389 185.151,370.955 185.250,371.231 185.298 M254.655 192.824 C 255.019 193.161,255.477 193.375,255.673 193.299 C 255.870 193.224,256.030 193.259,256.030 193.378 C 256.030 193.496,257.528 193.593,259.359 193.593 C 261.190 193.594,263.423 193.742,264.322 193.922 C 265.220 194.103,266.181 194.292,266.457 194.342 C 266.734 194.393,266.988 194.457,267.023 194.485 C 267.057 194.512,267.198 194.563,267.337 194.598 C 267.475 194.633,267.644 194.689,267.714 194.724 C 267.783 194.758,267.924 194.802,268.028 194.822 C 268.131 194.841,268.329 194.928,268.467 195.015 C 268.894 195.284,271.357 195.961,271.357 195.810 C 271.357 195.731,271.526 195.808,271.734 195.980 C 271.941 196.152,272.111 196.208,272.111 196.106 C 272.111 196.003,272.252 196.032,272.425 196.171 C 272.715 196.404,274.753 196.898,275.628 196.947 C 278.956 197.134,279.354 197.320,282.127 199.972 L 283.543 201.326 283.543 203.310 C 283.543 205.615,283.541 205.618,281.169 206.033 C 272.122 207.616,264.036 207.910,260.302 206.792 C 257.976 206.096,258.256 206.104,250.598 206.519 C 243.623 206.897,239.868 206.696,236.213 205.748 C 234.780 205.377,233.884 205.291,232.663 205.408 C 231.730 205.498,229.361 205.392,227.136 205.161 C 224.328 204.871,221.347 204.778,216.457 204.829 C 209.268 204.904,208.648 204.829,206.850 203.666 C 206.089 203.175,205.720 202.261,206.281 202.261 C 206.420 202.261,206.533 202.087,206.533 201.874 C 206.533 200.271,210.939 198.241,214.418 198.241 C 215.425 198.241,216.328 198.162,216.425 198.064 C 216.522 197.967,216.909 197.848,217.283 197.800 C 217.658 197.752,219.095 197.358,220.477 196.925 C 221.859 196.491,223.075 196.116,223.178 196.090 C 223.282 196.064,223.395 196.019,223.430 195.991 C 223.464 195.962,223.832 195.888,224.246 195.826 C 224.661 195.764,225.339 195.595,225.754 195.451 C 226.168 195.307,226.790 195.134,227.136 195.067 C 227.481 195.000,228.725 194.721,229.899 194.448 C 231.074 194.175,232.374 193.893,232.789 193.823 C 233.204 193.752,234.108 193.597,234.799 193.477 C 238.357 192.862,242.976 192.643,246.007 192.947 C 248.031 193.150,249.143 193.168,249.309 193.003 C 249.446 192.865,249.694 192.805,249.859 192.868 C 250.024 192.931,250.490 192.810,250.896 192.599 C 252.071 191.986,253.867 192.094,254.655 192.824 M128.078 195.758 C 129.805 196.323,132.663 198.268,132.663 198.877 C 132.663 200.418,131.222 201.759,129.566 201.759 C 129.027 201.759,128.157 202.088,127.244 202.638 C 122.563 205.457,114.661 206.689,108.979 205.486 L 107.781 205.233 108.470 203.936 C 111.880 197.514,121.364 193.559,128.078 195.758 M166.334 216.710 C 166.562 216.917,166.825 217.011,166.917 216.918 C 167.010 216.826,167.085 216.869,167.085 217.015 C 167.085 217.280,168.551 218.075,169.316 218.224 C 169.540 218.267,169.780 218.325,169.849 218.352 C 169.918 218.379,170.060 218.388,170.163 218.371 C 170.267 218.355,170.352 218.467,170.352 218.620 C 170.352 218.773,170.508 218.838,170.698 218.765 C 170.888 218.692,171.143 218.724,171.263 218.836 C 171.444 219.004,173.238 219.435,177.010 220.215 C 177.890 220.397,181.774 221.776,182.579 222.192 C 183.005 222.413,183.404 222.543,183.465 222.481 C 183.670 222.276,192.610 223.265,195.226 223.782 C 195.572 223.850,196.080 223.951,196.357 224.005 C 197.076 224.147,197.558 224.275,197.990 224.439 C 198.694 224.706,204.898 226.688,205.276 226.767 C 205.484 226.811,205.682 226.869,205.716 226.897 C 205.751 226.924,205.892 226.976,206.030 227.010 C 206.168 227.045,206.366 227.100,206.470 227.134 C 206.573 227.168,206.761 227.176,206.887 227.152 C 207.012 227.129,207.182 227.211,207.263 227.336 C 207.349 227.467,208.591 227.350,210.176 227.063 C 213.549 226.452,221.338 226.327,223.744 226.845 C 225.134 227.145,225.911 227.320,226.068 227.368 C 226.102 227.378,226.170 227.359,226.218 227.324 C 226.266 227.290,226.485 227.411,226.705 227.594 C 227.009 227.846,228.697 227.945,233.716 228.005 C 237.352 228.048,242.701 228.277,245.603 228.515 C 251.408 228.989,259.153 229.129,262.727 228.824 C 264.719 228.654,265.308 228.703,267.124 229.190 C 269.556 229.843,273.839 229.938,283.176 229.547 C 288.857 229.309,290.933 229.483,293.046 230.374 L 294.007 230.779 293.925 233.550 C 293.837 236.562,293.905 236.396,291.930 238.423 C 288.964 241.467,281.215 243.477,275.978 242.561 C 272.464 241.947,269.186 241.738,262.688 241.716 C 256.136 241.694,249.815 241.377,247.484 240.954 C 246.248 240.730,245.613 240.770,243.545 241.202 C 241.959 241.533,239.244 241.805,235.930 241.966 C 218.812 242.797,217.698 242.943,213.595 244.897 C 211.569 245.862,211.022 245.879,208.395 245.057 C 207.182 244.678,207.046 244.684,205.750 245.168 C 204.999 245.449,203.143 245.923,201.627 246.221 C 196.566 247.216,194.465 247.730,193.321 248.251 C 192.272 248.728,192.032 248.745,190.157 248.471 C 185.981 247.860,179.390 249.093,176.633 251.001 C 176.219 251.287,175.263 251.490,173.830 251.597 C 171.307 251.784,169.709 252.261,166.142 253.892 C 164.706 254.549,162.825 255.197,161.891 255.357 C 160.398 255.613,160.163 255.734,159.730 256.467 C 158.366 258.780,153.990 258.199,148.546 254.981 C 144.986 252.876,142.657 251.918,133.730 248.886 C 129.481 247.443,125.168 245.916,124.144 245.491 C 122.379 244.759,122.212 244.735,120.867 245.013 C 119.473 245.301,119.420 245.290,117.495 244.338 C 115.284 243.245,115.940 243.221,110.176 244.606 C 105.154 245.813,99.201 245.724,97.414 244.416 C 96.727 243.914,96.451 241.338,96.639 237.186 L 96.804 233.543 97.675 232.717 C 98.522 231.916,100.274 230.869,100.973 230.748 C 101.162 230.716,101.897 230.548,102.606 230.376 C 104.729 229.861,109.089 230.018,111.432 230.695 C 113.622 231.327,116.302 231.412,118.342 230.913 C 120.360 230.419,120.692 230.377,123.407 230.280 C 125.573 230.202,126.295 230.075,127.176 229.616 C 127.776 229.304,128.379 229.026,128.518 228.998 C 128.656 228.970,129.730 228.760,130.905 228.531 C 132.079 228.303,133.323 228.047,133.668 227.962 C 134.014 227.877,134.393 227.830,134.511 227.857 C 134.630 227.885,134.879 227.780,135.066 227.625 C 135.252 227.470,135.515 227.412,135.650 227.495 C 135.785 227.578,135.963 227.536,136.046 227.402 C 136.129 227.268,136.363 227.221,136.566 227.299 C 136.769 227.377,136.935 227.340,136.935 227.216 C 136.935 227.092,137.162 226.974,137.440 226.953 C 138.014 226.910,139.447 225.959,139.447 225.622 C 139.447 225.236,141.527 224.189,142.839 223.913 C 145.070 223.443,147.275 223.094,148.048 223.087 C 148.287 223.085,148.545 222.983,148.621 222.859 C 148.697 222.736,148.914 222.694,149.103 222.767 C 149.292 222.839,149.522 222.776,149.615 222.626 C 149.708 222.476,149.868 222.406,149.972 222.470 C 150.076 222.534,150.770 222.087,151.515 221.476 C 152.828 220.399,154.888 219.654,156.093 219.820 C 156.335 219.854,156.533 219.749,156.533 219.587 C 156.533 219.425,156.702 219.358,156.910 219.438 C 157.117 219.517,157.286 219.466,157.286 219.324 C 157.286 219.182,157.399 219.136,157.538 219.221 C 157.676 219.307,157.789 219.238,157.789 219.068 C 157.789 218.899,157.862 218.833,157.951 218.923 C 158.040 219.012,158.634 218.706,159.270 218.243 C 162.120 216.170,165.037 215.537,166.334 216.710 M327.879 221.473 C 328.405 221.949,328.591 223.116,328.141 223.116 C 328.003 223.116,327.889 223.455,327.889 223.869 C 327.889 224.284,328.003 224.623,328.141 224.623 C 328.279 224.623,328.392 224.787,328.392 224.988 C 328.392 225.189,328.788 225.737,329.271 226.207 C 329.755 226.676,330.151 227.247,330.151 227.475 C 330.151 227.703,330.264 227.889,330.402 227.889 C 330.546 227.889,330.653 228.643,330.653 229.648 C 330.653 230.616,330.557 231.407,330.439 231.407 C 330.321 231.407,330.160 232.498,330.080 233.831 C 330.000 235.164,329.820 236.326,329.678 236.414 C 329.536 236.501,329.344 237.050,329.251 237.633 C 329.158 238.216,328.991 238.693,328.880 238.693 C 328.770 238.693,328.599 239.344,328.502 240.138 C 328.404 240.933,328.245 241.639,328.149 241.709 C 328.054 241.778,327.849 243.019,327.694 244.468 C 327.539 245.917,327.294 247.142,327.149 247.190 C 327.003 247.238,326.884 247.413,326.884 247.578 C 326.884 248.870,322.563 250.391,321.001 249.650 C 319.611 248.991,315.777 248.273,311.432 247.861 C 304.262 247.179,300.882 246.483,299.111 245.322 C 298.377 244.841,298.227 243.015,298.869 242.373 C 299.077 242.165,299.246 241.892,299.246 241.765 C 299.246 241.563,299.469 241.251,300.476 240.046 C 300.950 239.480,301.759 237.446,301.759 236.823 C 301.759 236.470,301.872 236.181,302.010 236.181 C 302.161 236.181,302.263 235.152,302.266 233.606 C 302.272 230.635,302.624 227.810,303.004 227.684 C 303.148 227.636,303.266 227.451,303.266 227.274 C 303.266 226.309,305.322 225.539,308.166 225.439 C 309.686 225.386,311.099 225.275,311.307 225.193 C 311.514 225.111,311.768 225.020,311.872 224.990 C 311.976 224.961,312.117 224.909,312.186 224.874 C 312.255 224.840,312.425 224.783,312.563 224.749 C 312.701 224.714,312.871 224.658,312.940 224.623 C 313.009 224.589,313.150 224.537,313.254 224.508 C 314.537 224.155,314.824 224.033,314.824 223.842 C 314.824 223.719,314.909 223.640,315.013 223.668 C 315.344 223.755,316.443 223.320,316.897 222.921 C 317.139 222.709,317.337 222.603,317.337 222.687 C 317.337 222.821,318.074 222.571,319.724 221.877 C 320.000 221.760,320.735 221.526,321.357 221.355 C 321.979 221.184,322.601 221.004,322.739 220.955 C 323.577 220.655,327.401 221.040,327.879 221.473 M252.301 246.504 C 252.564 246.644,253.086 246.805,253.462 246.860 C 253.838 246.915,254.428 247.033,254.774 247.121 C 255.119 247.209,255.572 247.308,255.779 247.340 C 255.986 247.372,256.382 247.472,256.658 247.561 C 257.255 247.753,260.080 248.071,263.568 248.337 C 267.705 248.654,269.630 248.752,276.508 248.999 C 286.895 249.371,288.995 249.518,292.839 250.142 C 293.392 250.231,294.014 250.329,294.221 250.359 C 294.428 250.389,294.824 250.486,295.101 250.574 C 295.377 250.662,295.886 250.787,296.231 250.852 C 296.577 250.918,297.877 251.326,299.121 251.759 C 300.364 252.193,301.608 252.588,301.884 252.637 C 302.760 252.793,304.840 253.005,306.658 253.124 C 308.510 253.245,309.389 253.390,309.794 253.640 C 309.928 253.723,310.352 253.840,310.735 253.899 C 311.558 254.026,312.412 254.212,312.500 254.284 C 312.535 254.311,312.648 254.358,312.751 254.387 C 312.855 254.416,313.122 254.521,313.344 254.621 C 313.567 254.720,314.076 254.843,314.475 254.896 C 314.874 254.948,315.201 255.013,315.201 255.040 C 315.201 255.141,317.598 255.496,319.347 255.655 C 320.107 255.723,320.898 255.853,321.106 255.943 C 321.313 256.033,321.621 256.135,321.791 256.171 C 321.961 256.206,322.290 256.425,322.521 256.656 C 322.952 257.087,323.855 257.504,324.748 257.683 C 325.024 257.739,325.288 257.898,325.334 258.038 C 325.381 258.177,325.629 258.291,325.886 258.291 C 326.142 258.291,326.423 258.406,326.510 258.547 C 326.597 258.687,326.764 258.743,326.882 258.670 C 326.999 258.598,327.248 258.680,327.435 258.854 C 327.623 259.028,327.943 259.208,328.147 259.253 C 328.351 259.297,328.555 259.439,328.601 259.567 C 328.647 259.694,328.895 259.799,329.152 259.799 C 329.409 259.799,329.693 259.919,329.783 260.066 C 329.952 260.338,330.929 260.777,331.725 260.938 C 331.970 260.988,332.346 261.205,332.562 261.420 C 333.028 261.887,333.907 262.390,334.397 262.471 C 334.590 262.503,335.142 262.934,335.622 263.429 C 336.103 263.923,336.764 264.395,337.092 264.478 C 337.420 264.560,337.688 264.735,337.688 264.866 C 337.688 264.998,337.806 265.032,337.951 264.943 C 338.095 264.854,338.349 264.893,338.516 265.030 C 338.683 265.166,339.497 265.368,340.327 265.478 C 341.156 265.588,341.891 265.688,341.960 265.701 C 342.150 265.737,344.043 266.350,344.472 266.514 C 344.680 266.594,344.983 266.687,345.147 266.722 C 345.311 266.757,345.696 267.018,346.002 267.303 C 346.308 267.589,346.645 267.768,346.750 267.703 C 346.856 267.638,347.263 267.848,347.655 268.171 C 348.893 269.189,350.745 270.379,351.242 270.475 C 351.921 270.605,353.015 271.361,353.016 271.700 C 353.017 271.857,354.099 272.663,355.421 273.492 C 356.742 274.322,358.331 275.481,358.952 276.068 C 359.572 276.655,360.218 277.136,360.386 277.136 C 360.554 277.136,360.979 277.447,361.330 277.827 C 361.997 278.548,363.558 279.844,364.281 280.276 C 364.512 280.415,365.153 280.958,365.705 281.484 C 370.268 285.830,371.315 286.881,371.576 287.372 C 371.920 288.021,372.405 288.570,375.503 291.821 C 376.746 293.126,377.990 294.488,378.266 294.848 C 378.543 295.208,378.967 295.740,379.209 296.031 C 379.450 296.322,379.648 296.663,379.648 296.790 C 379.648 296.917,379.818 297.190,380.025 297.398 C 380.232 297.605,380.402 297.993,380.402 298.259 C 380.402 298.526,380.511 298.744,380.645 298.744 C 380.778 298.744,380.962 299.309,381.054 300.000 C 381.146 300.691,381.319 301.256,381.439 301.256 C 381.560 301.256,381.658 302.330,381.658 303.643 C 381.658 304.956,381.560 306.030,381.439 306.030 C 381.319 306.030,381.148 306.482,381.059 307.035 C 380.971 307.588,380.799 308.040,380.678 308.040 C 380.556 308.040,380.382 308.337,380.291 308.699 C 380.200 309.061,379.990 309.499,379.824 309.673 C 379.658 309.847,379.353 310.239,379.146 310.545 C 378.150 312.017,377.764 312.275,376.131 312.563 C 375.232 312.721,373.329 313.125,371.900 313.461 C 367.285 314.544,364.193 314.042,363.668 312.123 C 363.583 311.812,363.413 311.558,363.289 311.558 C 363.166 311.558,363.065 310.879,363.065 310.050 C 363.065 309.213,363.177 308.543,363.317 308.543 C 363.455 308.543,363.568 307.921,363.568 307.161 C 363.568 306.401,363.467 305.779,363.345 305.779 C 363.222 305.779,363.047 305.383,362.956 304.899 C 362.866 304.416,362.691 304.020,362.568 304.020 C 362.446 304.020,362.272 303.788,362.182 303.505 C 362.092 303.221,361.717 302.667,361.348 302.274 C 360.249 301.099,358.375 298.844,357.789 297.990 C 357.582 297.688,357.214 297.208,356.972 296.923 C 356.731 296.638,356.533 296.253,356.533 296.067 C 356.533 295.881,356.425 295.729,356.293 295.729 C 356.161 295.729,355.979 295.333,355.888 294.849 C 355.797 294.366,355.622 293.970,355.500 293.970 C 355.377 293.970,355.276 293.122,355.276 292.085 C 355.276 290.997,355.382 290.201,355.528 290.201 C 357.182 290.201,354.200 288.517,351.822 288.108 C 350.812 287.934,350.251 287.718,350.251 287.501 C 350.251 286.407,347.592 284.609,344.598 283.678 C 342.992 283.179,340.625 281.974,340.027 281.352 C 337.779 279.013,337.814 279.035,334.439 277.824 C 331.543 276.785,330.657 276.321,327.676 274.281 C 325.790 272.991,323.681 271.729,322.990 271.477 C 322.299 271.225,321.621 270.937,321.482 270.838 C 321.344 270.738,320.044 270.303,318.593 269.870 C 314.550 268.666,311.323 267.569,309.808 266.886 C 308.527 266.309,308.368 266.291,307.460 266.622 C 306.176 267.091,303.387 266.224,300.867 264.573 C 299.288 263.538,299.024 263.447,297.749 263.503 C 295.409 263.605,292.885 263.091,288.879 261.699 C 283.057 259.676,281.573 259.452,275.252 259.643 C 259.608 260.117,259.509 260.118,256.543 259.701 C 252.931 259.194,251.596 259.194,248.960 259.700 C 247.235 260.032,245.934 260.073,241.688 259.931 C 236.597 259.760,235.620 259.841,233.700 260.598 C 233.337 260.741,231.005 260.890,228.518 260.930 C 223.135 261.015,219.869 261.518,210.553 263.695 C 208.411 264.195,205.477 264.713,204.034 264.845 C 201.312 265.093,200.986 265.164,196.923 266.376 C 186.746 269.412,180.083 269.235,175.176 265.798 C 174.412 265.262,173.684 264.824,173.559 264.824 C 173.434 264.824,172.859 264.506,172.281 264.116 C 171.161 263.361,169.553 262.563,169.154 262.563 C 168.372 262.563,167.588 261.489,167.588 260.418 C 167.588 258.262,169.509 256.978,173.618 256.384 C 175.164 256.161,176.584 256.001,176.998 256.004 C 177.268 256.005,177.631 255.889,177.804 255.746 C 177.977 255.602,178.237 255.557,178.381 255.646 C 178.525 255.736,178.643 255.703,178.643 255.575 C 178.643 255.446,179.067 255.271,179.585 255.185 C 180.104 255.100,180.862 254.854,181.270 254.639 C 182.127 254.187,183.073 254.056,186.558 253.903 C 189.384 253.779,190.534 253.632,192.462 253.148 C 192.808 253.062,193.416 252.943,193.813 252.885 C 194.211 252.827,194.805 252.604,195.133 252.389 C 195.460 252.174,195.729 252.071,195.729 252.161 C 195.729 252.250,195.898 252.182,196.106 252.010 C 196.313 251.838,196.482 251.762,196.482 251.841 C 196.482 251.920,196.850 251.831,197.299 251.644 C 197.812 251.430,199.376 251.277,201.508 251.232 C 203.373 251.193,205.182 251.058,205.528 250.932 C 205.873 250.807,206.495 250.655,206.910 250.596 C 207.324 250.537,207.946 250.417,208.291 250.331 C 208.637 250.244,209.146 250.136,209.422 250.090 C 209.698 250.044,210.660 249.882,211.558 249.731 C 212.456 249.579,213.530 249.412,213.945 249.359 C 214.359 249.307,215.151 249.202,215.704 249.127 C 218.356 248.765,222.328 248.396,226.382 248.136 C 231.057 247.836,235.827 247.517,238.065 247.354 C 238.894 247.293,240.364 247.188,241.332 247.119 C 246.793 246.733,249.024 246.537,249.126 246.436 C 249.337 246.225,251.882 246.279,252.301 246.504 M118.090 249.589 C 118.639 249.705,119.368 249.877,120.226 250.093 C 120.364 250.127,121.099 250.487,121.859 250.893 C 122.619 251.299,123.350 251.677,123.484 251.734 C 123.617 251.790,123.900 252.048,124.112 252.306 C 124.422 252.684,124.986 252.805,127.010 252.931 C 128.898 253.049,129.694 253.208,130.214 253.571 C 130.594 253.837,130.906 253.962,130.908 253.849 C 130.910 253.736,130.995 253.770,131.097 253.924 C 131.363 254.330,133.829 255.534,134.015 255.349 C 134.101 255.263,134.171 255.325,134.171 255.486 C 134.171 255.647,134.256 255.755,134.359 255.726 C 134.463 255.696,134.787 255.805,135.080 255.968 C 135.373 256.131,135.684 256.192,135.771 256.105 C 135.858 256.018,135.930 256.078,135.930 256.240 C 135.930 256.401,136.014 256.509,136.118 256.479 C 136.222 256.450,136.561 256.567,136.872 256.739 C 137.183 256.912,137.437 256.990,137.437 256.913 C 137.437 256.835,137.720 256.958,138.065 257.184 C 138.411 257.410,138.693 257.523,138.693 257.435 C 138.693 257.347,138.952 257.444,139.267 257.651 C 139.583 257.858,140.063 258.064,140.335 258.109 C 140.607 258.154,141.084 258.330,141.394 258.501 C 141.705 258.672,141.960 258.749,141.960 258.671 C 141.960 258.594,142.242 258.716,142.588 258.943 C 142.933 259.169,143.216 259.282,143.216 259.194 C 143.216 259.106,143.499 259.219,143.844 259.445 C 144.190 259.672,144.474 259.759,144.476 259.639 C 144.478 259.520,144.563 259.535,144.665 259.673 C 144.766 259.812,146.036 260.490,147.487 261.181 C 148.938 261.872,150.209 262.550,150.310 262.688 C 150.433 262.856,150.497 262.856,150.503 262.688 C 150.507 262.550,150.622 262.607,150.758 262.814 C 150.924 263.068,151.067 263.103,151.193 262.921 C 151.490 262.498,153.570 262.505,154.596 262.934 C 155.109 263.148,155.528 263.263,155.528 263.189 C 155.528 263.114,155.791 263.226,156.113 263.437 C 156.435 263.648,156.774 263.745,156.867 263.652 C 156.959 263.560,157.035 263.616,157.035 263.777 C 157.035 263.938,157.120 264.046,157.224 264.017 C 157.327 263.988,157.652 264.097,157.944 264.259 C 158.237 264.422,158.548 264.484,158.635 264.397 C 158.723 264.309,158.794 264.370,158.794 264.531 C 158.794 264.692,158.879 264.802,158.982 264.775 C 159.086 264.749,161.334 265.817,163.979 267.149 C 166.623 268.482,168.856 269.502,168.941 269.417 C 169.026 269.332,169.095 269.395,169.095 269.556 C 169.095 269.717,169.180 269.825,169.284 269.796 C 169.388 269.767,169.727 269.884,170.038 270.056 C 170.349 270.228,170.605 270.281,170.607 270.172 C 170.609 270.064,170.694 270.099,170.795 270.251 C 170.958 270.496,174.997 271.952,176.274 272.226 C 176.541 272.284,178.087 272.782,179.711 273.334 C 181.335 273.886,182.663 274.275,182.663 274.198 C 182.663 274.122,182.833 274.200,183.040 274.372 C 183.247 274.544,183.417 274.600,183.417 274.497 C 183.417 274.395,183.558 274.420,183.731 274.553 C 184.120 274.854,186.557 275.493,188.195 275.724 C 188.405 275.753,188.694 275.850,188.838 275.939 C 189.226 276.179,192.138 276.458,193.719 276.407 C 198.093 276.266,199.808 276.328,200.188 276.644 C 200.223 276.673,200.336 276.720,200.440 276.750 C 200.543 276.780,201.049 276.992,201.562 277.221 C 202.076 277.451,202.663 277.638,202.867 277.638 C 203.070 277.638,203.308 277.753,203.394 277.894 C 203.481 278.034,203.645 278.092,203.758 278.022 C 203.871 277.952,204.097 278.056,204.260 278.253 C 204.424 278.450,204.917 278.688,205.357 278.782 C 205.796 278.876,206.297 279.066,206.470 279.206 C 206.643 279.345,206.784 279.371,206.784 279.263 C 206.784 279.156,207.010 279.272,207.286 279.523 C 207.563 279.773,207.789 279.889,207.789 279.782 C 207.789 279.675,207.959 279.727,208.166 279.899 C 208.373 280.072,208.543 280.135,208.543 280.041 C 208.543 279.947,208.684 279.958,208.857 280.066 C 209.030 280.174,209.329 280.286,209.523 280.315 C 209.716 280.345,209.942 280.474,210.025 280.603 C 210.182 280.847,211.074 281.179,211.935 281.313 C 212.961 281.472,213.306 281.564,213.460 281.717 C 213.546 281.804,213.764 281.818,213.944 281.749 C 214.124 281.680,214.347 281.747,214.439 281.897 C 214.532 282.046,214.718 282.101,214.852 282.018 C 214.987 281.934,215.234 281.978,215.400 282.115 C 215.567 282.252,216.269 282.434,216.960 282.520 C 217.651 282.605,218.555 282.733,218.970 282.803 C 220.371 283.040,221.478 283.188,222.613 283.291 C 223.235 283.348,224.648 283.482,225.754 283.589 C 229.755 283.977,239.909 283.820,244.598 283.299 C 245.151 283.237,246.112 283.131,246.734 283.062 C 248.150 282.906,250.888 282.549,252.513 282.309 C 252.858 282.258,253.706 282.142,254.397 282.051 C 255.088 281.960,255.879 281.813,256.156 281.725 C 256.934 281.475,257.379 281.378,257.789 281.370 C 257.996 281.365,258.562 281.235,259.045 281.081 C 259.529 280.927,260.009 280.781,260.113 280.758 C 260.217 280.735,260.358 280.688,260.427 280.653 C 260.496 280.619,260.666 280.562,260.804 280.528 C 260.942 280.493,261.112 280.437,261.181 280.402 C 261.250 280.367,261.420 280.311,261.558 280.276 C 261.696 280.242,261.866 280.185,261.935 280.151 C 262.004 280.116,262.173 280.060,262.312 280.025 C 262.450 279.991,262.591 279.940,262.626 279.912 C 262.660 279.884,262.863 279.827,263.076 279.784 C 263.736 279.654,265.790 278.659,265.957 278.389 C 266.044 278.248,266.206 278.189,266.317 278.257 C 266.427 278.325,266.773 278.160,267.085 277.889 C 267.397 277.619,267.743 277.453,267.854 277.522 C 267.965 277.590,268.127 277.531,268.214 277.391 C 268.300 277.251,268.577 277.136,268.828 277.136 C 269.080 277.136,269.426 276.966,269.598 276.759 C 269.770 276.552,270.123 276.382,270.383 276.382 C 270.642 276.382,270.854 276.269,270.854 276.131 C 270.854 275.992,271.071 275.879,271.336 275.879 C 271.601 275.879,271.857 275.760,271.906 275.614 C 271.954 275.469,272.218 275.308,272.492 275.257 C 272.766 275.206,273.018 275.141,273.053 275.113 C 273.087 275.086,273.229 275.035,273.367 275.000 C 273.505 274.965,273.675 274.909,273.744 274.874 C 273.813 274.840,273.982 274.783,274.121 274.749 C 274.259 274.714,274.428 274.658,274.497 274.623 C 274.567 274.589,274.736 274.532,274.874 274.497 C 275.013 274.463,275.182 274.406,275.251 274.372 C 275.320 274.337,275.490 274.281,275.628 274.246 C 275.766 274.212,275.936 274.155,276.005 274.121 C 276.074 274.086,276.244 274.030,276.382 273.995 C 276.520 273.960,276.690 273.904,276.759 273.869 C 276.828 273.835,276.969 273.791,277.073 273.771 C 277.177 273.752,277.410 273.642,277.592 273.526 C 277.774 273.411,277.981 273.375,278.053 273.447 C 278.246 273.640,279.146 272.804,279.146 272.432 C 279.146 272.255,279.250 272.111,279.377 272.111 C 279.504 272.111,279.683 271.771,279.774 271.357 C 279.865 270.942,280.041 270.603,280.166 270.603 C 280.291 270.603,280.463 270.320,280.550 269.975 C 280.637 269.629,280.800 269.347,280.912 269.347 C 281.024 269.347,281.190 269.008,281.281 268.593 C 281.372 268.178,281.539 267.839,281.651 267.839 C 281.763 267.839,281.928 267.549,282.017 267.194 L 282.179 266.549 284.871 266.700 C 289.007 266.933,290.491 267.077,292.211 267.415 C 292.695 267.510,293.373 267.641,293.719 267.705 C 294.064 267.770,294.799 267.946,295.352 268.097 C 295.905 268.247,296.753 268.471,297.236 268.595 C 297.720 268.718,298.477 269.000,298.919 269.221 C 299.361 269.441,299.943 269.664,300.213 269.716 C 300.876 269.844,301.902 270.688,303.006 272.014 C 303.532 272.645,303.675 275.434,303.207 275.903 C 303.007 276.103,302.715 276.507,302.558 276.800 C 302.389 277.115,300.867 278.032,298.836 279.041 C 295.557 280.671,292.965 282.606,292.965 283.425 C 292.965 283.885,292.382 284.327,291.325 284.668 C 290.776 284.845,290.214 285.073,290.075 285.175 C 289.937 285.277,289.202 285.559,288.442 285.802 C 286.016 286.578,284.390 287.430,283.370 288.460 C 282.421 289.419,282.299 289.466,280.573 289.546 C 279.068 289.616,278.540 289.766,277.387 290.455 C 276.292 291.110,275.614 291.317,274.121 291.452 C 272.290 291.618,271.106 292.007,271.106 292.442 C 271.106 292.559,270.391 293.120,269.518 293.689 L 267.930 294.724 263.425 294.726 C 253.181 294.731,243.110 295.612,238.693 296.888 C 237.284 297.295,235.787 297.253,233.040 296.731 C 232.349 296.599,228.392 296.204,224.246 295.853 C 216.053 295.158,212.177 294.635,211.111 294.079 C 210.735 293.882,210.346 293.721,210.246 293.720 C 210.147 293.719,209.412 293.417,208.613 293.047 C 207.373 292.474,206.684 292.351,203.894 292.205 C 200.094 292.006,199.268 291.738,196.375 289.766 C 193.616 287.886,191.632 287.275,186.772 286.810 C 180.816 286.241,179.784 286.004,176.856 284.537 C 174.561 283.386,171.772 282.571,170.717 282.742 C 169.902 282.874,169.764 282.774,167.810 280.636 L 165.759 278.392 163.773 278.392 C 160.177 278.392,157.460 277.605,152.530 275.137 C 148.622 273.180,146.693 272.573,143.970 272.441 C 141.683 272.330,141.472 272.268,138.945 270.986 C 137.494 270.249,134.497 268.892,132.286 267.969 C 130.075 267.047,127.438 265.840,126.425 265.289 C 124.783 264.395,124.499 264.316,123.812 264.555 C 122.641 264.963,121.676 264.884,119.472 264.200 C 117.254 263.511,115.840 263.425,114.701 263.911 C 114.066 264.181,113.730 264.163,112.540 263.792 C 110.507 263.160,107.656 262.814,104.476 262.814 L 101.701 262.814 100.725 261.746 C 97.731 258.472,96.495 255.661,97.005 253.283 C 97.360 251.626,97.321 251.650,101.382 250.605 C 102.651 250.278,104.947 249.900,107.276 249.633 C 108.030 249.547,108.689 249.435,108.740 249.384 C 108.877 249.247,117.354 249.433,118.090 249.589 M61.943 257.219 C 63.109 258.525,63.531 259.423,64.518 262.693 C 65.478 265.876,66.103 267.417,66.544 267.690 C 66.744 267.813,66.481 269.231,65.797 271.730 C 65.386 273.228,64.201 274.163,61.167 275.383 C 57.099 277.018,56.692 277.537,51.136 288.203 C 46.626 296.860,46.271 299.393,48.751 305.198 C 50.625 309.583,50.635 314.322,48.771 314.322 C 48.543 314.322,47.465 314.844,46.375 315.481 C 41.948 318.073,39.426 316.762,38.035 311.146 C 37.618 309.464,37.533 309.345,34.532 306.237 C 30.242 301.793,28.923 299.278,29.889 297.382 C 30.459 296.265,30.574 295.535,30.887 291.051 C 31.088 288.161,31.224 287.495,31.987 285.649 C 33.261 282.566,33.920 280.260,33.920 278.878 C 33.920 277.745,34.005 277.578,35.128 276.528 C 35.792 275.907,36.499 275.086,36.698 274.704 C 36.897 274.323,37.258 273.809,37.500 273.563 C 37.742 273.317,37.940 272.998,37.940 272.854 C 37.940 272.710,38.138 272.378,38.379 272.117 C 38.621 271.855,39.102 271.097,39.447 270.431 C 39.793 269.766,40.160 269.183,40.264 269.137 C 40.367 269.091,40.452 268.893,40.452 268.698 C 40.452 268.502,40.569 268.342,40.711 268.342 C 40.854 268.342,41.032 268.180,41.108 267.983 C 41.532 266.878,45.123 264.035,46.545 263.678 C 46.649 263.652,46.790 263.602,46.859 263.568 C 46.928 263.533,47.098 263.477,47.236 263.442 C 47.374 263.408,47.516 263.357,47.550 263.329 C 47.585 263.302,47.896 263.228,48.241 263.165 C 48.587 263.102,48.907 262.940,48.954 262.805 C 49.000 262.670,49.141 262.624,49.268 262.702 C 49.394 262.780,49.497 262.724,49.497 262.578 C 49.497 262.431,49.657 262.312,49.852 262.312 C 50.265 262.312,51.460 260.962,51.771 260.145 C 51.893 259.824,52.502 259.342,53.191 259.022 C 54.622 258.357,54.956 258.241,55.112 258.354 C 55.160 258.389,55.386 258.262,55.615 258.072 C 55.843 257.883,56.030 257.812,56.030 257.915 C 56.030 258.018,56.200 257.961,56.407 257.789 C 56.614 257.617,56.784 257.560,56.784 257.663 C 56.784 257.766,56.954 257.710,57.161 257.538 C 57.368 257.366,57.538 257.299,57.538 257.390 C 57.538 257.481,57.792 257.414,58.103 257.242 C 58.414 257.069,58.753 256.952,58.857 256.982 C 58.960 257.011,59.045 256.915,59.045 256.769 C 59.045 256.623,59.150 256.568,59.279 256.648 C 59.408 256.727,59.591 256.666,59.686 256.511 C 59.968 256.055,61.269 256.463,61.943 257.219 M255.528 265.087 C 257.807 265.450,260.604 265.670,264.057 265.758 C 270.391 265.920,272.021 266.385,270.741 267.665 C 270.527 267.879,270.352 268.138,270.352 268.240 C 270.352 268.342,270.180 268.604,269.971 268.823 C 269.762 269.042,269.164 269.676,268.644 270.233 C 268.123 270.789,267.305 271.520,266.826 271.857 C 266.347 272.194,265.842 272.604,265.704 272.769 C 264.575 274.118,261.586 274.826,250.560 276.358 C 238.928 277.973,239.995 277.902,236.215 277.316 L 232.858 276.795 230.025 277.355 C 226.562 278.039,226.222 278.005,218.970 276.254 C 215.930 275.520,212.425 274.732,211.181 274.502 C 206.029 273.552,202.764 271.844,202.764 270.099 C 202.764 269.035,203.595 268.754,206.156 268.951 C 208.012 269.094,210.104 268.792,211.558 268.169 C 211.765 268.081,212.019 267.984,212.123 267.955 C 212.227 267.926,212.368 267.874,212.437 267.839 C 212.506 267.805,212.676 267.748,212.814 267.714 C 212.952 267.679,213.122 267.622,213.191 267.588 C 213.260 267.553,213.430 267.497,213.568 267.462 C 213.706 267.428,213.847 267.377,213.882 267.349 C 214.059 267.206,219.185 266.302,220.352 266.208 C 225.064 265.827,228.955 265.805,231.030 266.147 C 233.209 266.507,234.633 266.663,235.427 266.630 C 237.247 266.553,237.859 266.468,238.134 266.256 C 238.310 266.120,238.526 266.080,238.614 266.168 C 238.701 266.256,238.925 266.201,239.110 266.047 C 239.296 265.894,239.447 265.831,239.447 265.909 C 239.447 265.987,240.267 265.768,241.269 265.422 C 244.912 264.164,249.118 264.066,255.528 265.087 M108.920 268.436 C 109.058 268.461,109.312 268.570,109.485 268.678 C 109.658 268.786,109.904 268.809,110.033 268.729 C 110.162 268.650,110.337 268.698,110.422 268.836 C 110.508 268.975,110.826 269.090,111.131 269.092 C 111.435 269.094,112.204 269.139,112.840 269.192 C 113.476 269.245,114.946 269.362,116.106 269.453 C 121.777 269.897,125.879 271.491,125.879 273.252 C 125.879 274.741,122.355 275.175,113.631 274.762 L 109.046 274.545 107.887 272.849 C 106.047 270.156,106.272 267.610,108.291 268.268 C 108.499 268.335,108.781 268.411,108.920 268.436 " stroke="none" fill="#000000" fill-rule="evenodd"></path></g></svg>