<svg xmlns="http://www.w3.org/2000/svg" width="283.385" height="281.034" viewBox="0 0 283.385 281.034">
  <g id="XMLID_121_" transform="translate(-29.618 2.003)">
    <path id="XMLID_122_" d="M207.758,62.636c35.633-10.51,62.536-25.831,57.68-42.265s-67.655-26.6-103.3-16.084-30.631,37.722-25.783,54.157S172.1,73.161,207.758,62.636Z" transform="translate(-48.888)" fill="#333" stroke="#000" stroke-width="4"/>
    <path id="XMLID_123_" d="M139.3,150.972c-5.119,20.586,51.294,27.631,101.959,40.255s93.878,14.358,99.008-6.229,9.421-54.606-41.255-67.23S144.425,130.392,139.3,150.972Z" transform="translate(-58.73 -48.51)" fill="#777" stroke="#707070" stroke-width="4"/>
    <path id="XMLID_124_" d="M219.526,233.18s-44.109-6.157-70.421,18.688-49.244,67.986-39.759,84.338c9.557,16.6,35.984,32,105.249,26.855s171.813-20.453,171.813-47.424a8.484,8.484,0,0,0-.823-3.4C370.73,269.589,219.526,233.18,219.526,233.18Z" transform="translate(-75.405 -87.055)" fill="#e5e5e5" stroke="#000" stroke-width="4"/>
  </g>
</svg>